<?xml version="1.0" encoding="utf-8"?>
<!-- Uploaded to: SVG Repo, www.svgrepo.com, Generator: SVG Repo Mixer Tools -->
<svg width="90px" height="90px" viewBox="0 0 1024 1024" class="icon"  version="1.1" xmlns="http://www.w3.org/2000/svg"><path d="M240.7 279.3c-12.9 0-19.2-10.1-23.8-17.4-4.3-6.9-6.5-9.9-10.2-9.9s-5.9 3-10.2 9.9c-4.6 7.3-10.9 17.4-23.8 17.4s-19.2-10.1-23.8-17.4c-4.3-6.9-6.5-9.9-10.2-9.9s-5.9 3-10.2 9.9c-4.6 7.3-10.9 17.4-23.8 17.4s-19.2-10.1-23.8-17.4c-4.3-6.9-6.5-9.9-10.2-9.9-4.4 0-8-3.6-8-8s3.6-8 8-8c12.9 0 19.2 10.1 23.8 17.4 4.3 6.9 6.5 9.9 10.2 9.9 3.7 0 5.9-3 10.2-9.9 4.6-7.3 10.9-17.4 23.8-17.4s19.2 10.1 23.8 17.4c4.3 6.9 6.5 9.9 10.2 9.9s5.9-3 10.2-9.9c4.6-7.3 10.9-17.4 23.8-17.4s19.2 10.1 23.8 17.4c4.3 6.9 6.5 9.9 10.2 9.9 4.4 0 8 3.6 8 8s-3.5 8-8 8zM262.7 229.3c-13.8 0-20.7-9.8-25.7-17-5.1-7.3-7.7-10.2-12.7-10.2s-7.5 3-12.7 10.2c-5.1 7.2-12 17-25.7 17-13.8 0-20.7-9.8-25.7-17-5.1-7.3-7.7-10.2-12.7-10.2s-7.5 3-12.7 10.2c-5.1 7.2-12 17-25.7 17s-20.7-9.8-25.7-17c-5.2-7.3-7.8-10.3-12.7-10.3-4.4 0-8-3.6-8-8s3.6-8 8-8c13.8 0 20.7 9.8 25.7 17 5.1 7.3 7.7 10.2 12.7 10.2s7.5-3 12.7-10.2c5.1-7.2 12-17 25.7-17s20.7 9.8 25.7 17c5.1 7.3 7.7 10.2 12.7 10.2s7.5-3 12.7-10.2c5.1-7.2 12-17 25.7-17s20.7 9.8 25.7 17c5.1 7.3 7.7 10.2 12.7 10.2 4.4 0 8 3.6 8 8s-3.6 8.1-8 8.1z" fill="#9A2D2F" /><path d="M352.7 101.7m-32 0a32 32 0 1 0 64 0 32 32 0 1 0-64 0Z" fill="#FFEB4D" /><path d="M352.7 141.7c-22.1 0-40-17.9-40-40s17.9-40 40-40 40 17.9 40 40-18 40-40 40z m0-64c-13.2 0-24 10.8-24 24s10.8 24 24 24 24-10.8 24-24-10.8-24-24-24z" fill="#9A2D2F" /><path d="M201.7 344.7c-18.8 18.8-18.8 49.2 0 67.9l67.9-67.9c-18.7-18.7-49.1-18.7-67.9 0z" fill="#FFEB4D" /><path d="M885.7 693.7h-764c-17.6 0-32-14.4-32-32s14.4-32 32-32h764c17.6 0 32 14.4 32 32s-14.4 32-32 32zM685.7 949.7h-362c-110 0-200-90-200-200v-56h762v56c0 110-90 200-200 200z" fill="#C7EBFF" /><path d="M847.7 430.7h-64c-8.8 0-16-7.2-16-16v-80h96v80c0 8.8-7.2 16-16 16z" fill="#FFEB4D" /><path d="M909.7 462.7h-76c-8.8 0-16-7.2-16-16v-112h108v112c0 8.8-7.2 16-16 16z" fill="#FFACC2" /><path d="M227 424.1c-3.1 3.1-3.1 8.2 0 11.3l11 11c1.6 1.6 3.6 2.3 5.7 2.3s4.1-0.8 5.7-2.3c3.1-3.1 3.1-8.2 0-11.3l-11-11a8.15 8.15 0 0 0-11.4 0zM265.9 396.2c-3.1-3.1-8.2-3.1-11.3 0-3.1 3.1-3.1 8.2 0 11.3l11 11c1.6 1.6 3.6 2.3 5.7 2.3s4.1-0.8 5.7-2.3c3.1-3.1 3.1-8.2 0-11.3l-11.1-11zM292.6 391.6c1.6 1.6 3.6 2.3 5.7 2.3s4.1-0.8 5.7-2.3c3.1-3.1 3.1-8.2 0-11.3l-11-11c-3.1-3.1-8.2-3.1-11.3 0-3.1 3.1-3.1 8.2 0 11.3l10.9 11z" fill="#9A2D2F" /><path d="M950.7 735.7c-5 0-7.5-3-12.7-10.2-5.1-7.2-12-17-25.7-17-8.3 0-14.2 3.6-18.6 8.1V701c12.1-2.5 22.2-10.4 27.7-21.1 1.1 1.3 2.2 2.9 3.6 4.9 5.1 7.2 12 17 25.7 17 4.4 0 8-3.6 8-8s-3.6-8-8-8c-5 0-7.5-3-12.7-10.2-3.1-4.4-6.8-9.7-12.4-13.2v-0.5c0-19.3-13.8-35.5-32-39.2v-152.5h16c13.2 0 24-10.8 24-24v-104h16c4.4 0 8-3.6 8-8s-3.6-8-8-8h-205c-4.4 0-8 3.6-8 8s3.6 8 8 8h15v72c0 13.2 10.8 24 24 24h26v8c0 13.2 10.8 24 24 24h44v151.5H875c-7-9.7-17.9-16.4-30.4-17.9-6.3-17-22.8-28.7-41.3-28.7h-0.7c-9.1-13.1-24.1-21.1-40.3-21.1-10.9 0-21.3 3.6-29.8 10.1-6.3-3.3-13.3-5.1-20.5-5.1s-14.1 1.7-20.3 4.9c-11.5-13-28.2-20.6-45.8-20.6-6.5 0-12.8 1-18.8 3-7.8-13.3-22.2-21.7-38-21.7-2.9 0-5.8 0.3-8.7 0.9-12.5-21.2-35.6-34.5-60.4-34.5-24.4 0-46.7 12.4-59.5 32.8-2.8-0.4-5.5-0.7-8.3-0.7-11.7 0-23 4-32.1 11.1-7.8-6.2-17.4-9.7-27.6-9.7-18.7 0-35.3 11.9-41.4 29.2-18.1 2-33.7 14-40.5 30.7-10-2-20.6-1.2-30.2 2.4-9.5-16.8-27.5-27.6-47.2-27.6-19.3 0-37.1 10.4-46.8 26.9-18.9 2.4-34.2 17.1-37.7 35.6h-17v-240.5c0-22.1 17.9-40 40-40 6.6 0 12.9 1.6 18.7 4.7-15.9 21.9-14 52.8 5.8 72.5 1.6 1.6 3.6 2.3 5.7 2.3s4.1-0.8 5.7-2.3l67.9-67.9c3.1-3.1 3.1-8.2 0-11.3-10.6-10.6-24.7-16.4-39.6-16.4-12.4 0-24.2 4-33.9 11.4-9-5.8-19.4-8.9-30.2-8.9-30.9 0-56 25.1-56 56v240.9c-19.2 2.9-34 19.5-34 39.5s14.8 36.6 34 39.5v48.5c0 55.3 21.7 107.5 61.1 146.9 19.6 19.6 42.3 34.7 66.9 45.1h-145c-4.4 0-8 3.6-8 8s3.6 8 8 8h824c4.4 0 8-3.6 8-8s-3.6-8-8-8h-157c24.7-10.3 47.4-25.5 66.9-45.1 39.4-39.4 61.1-91.6 61.1-146.9v-7.4c2.3-2.5 4.2-5.3 5.9-7.7 5.1-7.3 7.7-10.2 12.7-10.2s7.5 3 12.7 10.2c5.1 7.2 12 17 25.7 17 4.4 0 8-3.6 8-8s-3.7-7.9-8.1-7.9z m-141-313.5h-26c-4.4 0-8-3.6-8-8v-72h34v80z m-602.3-71.8c7.6-7.6 17.6-11.7 28.3-11.7 8 0 15.6 2.3 22.1 6.6l-55.5 55.5c-10.3-15.5-8.6-36.7 5.1-50.4z m626.3 103.8c-4.4 0-8-3.6-8-8v-104h92v104c0 4.4-3.6 8-8 8h-76z m-642.2 147.5c3 0 5.8-1.8 7.1-4.6 6.3-13.3 19.8-21.9 34.6-21.9 15.9 0 30.3 10 35.8 24.9 0.8 2.2 2.5 3.9 4.7 4.7s4.6 0.6 6.7-0.5c5.9-3.3 12.5-5 19.3-5 4.6 0 9.2 0.8 13.5 2.4 2.2 0.8 4.6 0.6 6.6-0.5s3.5-3.1 3.9-5.3c3.3-15.3 17.1-26.5 32.8-26.5h0.7c3.8 0 7.1-2.7 7.8-6.4 2.6-13 14.2-22.5 27.4-22.5 8.2 0 16 3.6 21.3 9.9 1.5 1.7 3.6 2.8 5.9 2.8s4.5-0.9 6-2.6c6.9-7.4 16.3-11.5 26.4-11.5 3.4 0 6.8 0.5 10.1 1.4 3.7 1.1 7.6-0.6 9.4-4 9.5-18.2 28-29.5 48.5-29.5 21 0 40.3 12.3 49.2 31.3 1.8 3.8 6.2 5.6 10.1 4.1 3.2-1.2 6.5-1.8 9.9-1.8 11.8 0 22.4 7.5 26.4 18.6 0.8 2.1 2.4 3.8 4.5 4.7 2.1 0.9 4.5 0.8 6.5-0.2 6.1-2.9 12.6-4.4 19.4-4.4 14.9 0 28.9 7.4 37.3 19.7 1.2 1.8 3.2 3 5.4 3.4 2.2 0.3 4.4-0.2 6.1-1.6 5-3.9 10.9-5.9 17.2-5.9 6 0 11.8 1.9 16.6 5.5 3.2 2.4 7.6 2 10.4-0.8 6.2-6.3 14.5-9.7 23.4-9.7 12.1 0 23.2 6.6 29 17.3 1.6 2.9 4.8 4.6 8.1 4.1 1.3-0.2 2.6-0.3 3.9-0.3 13.1 0 24.6 9.3 27.4 22.1 0.8 3.7 4.1 6.3 7.8 6.3h0.8c3.9 0 7.6 0.8 11 2.3h-685.3c3.4-11.4 14-19.8 26.4-20z m686.2 148c0 51.1-20 99.2-56.4 135.6s-84.5 56.4-135.6 56.4h-362c-51.1 0-99.2-20-135.6-56.4s-56.4-84.5-56.4-135.6v-48h746v48z m8-64h-764c-13.2 0-24-10.8-24-24s10.8-24 24-24h764c13.2 0 24 10.8 24 24s-10.8 24-24 24z" fill="#9A2D2F" /><path d="M838.8 619.4h-0.2c-3.7 0-7-2.6-7.8-6.3-2.8-12.8-14.3-22.1-27.4-22.1-1.3 0-2.6 0.1-3.9 0.3-3.3 0.5-6.5-1.2-8.1-4.1-5.8-10.7-16.9-17.3-29-17.3-8.9 0-17.2 3.4-23.4 9.7-2.8 2.8-7.2 3.2-10.4 0.8-4.8-3.6-10.6-5.5-16.6-5.5-6.3 0-12.2 2-17.2 5.9-1.7 1.4-3.9 1.9-6.1 1.6-2.2-0.4-4.2-1.6-5.4-3.4-8.4-12.3-22.4-19.7-37.3-19.7-6.8 0-13.3 1.5-19.4 4.4-2 1-4.4 1.1-6.5 0.2-2.1-0.9-3.7-2.6-4.5-4.7-4-11.1-14.6-18.6-26.4-18.6-3.4 0-6.7 0.6-9.9 1.8-3.9 1.5-8.3-0.3-10.1-4.1-8.9-19-28.2-31.3-49.2-31.3-20.5 0-39 11.3-48.5 29.5-1.8 3.4-5.7 5.1-9.4 4-3.3-0.9-6.7-1.4-10.1-1.4-10.1 0-19.5 4.1-26.4 11.5-1.5 1.7-3.7 2.6-6 2.6s-4.4-1.1-5.9-2.8c-5.3-6.3-13.1-9.9-21.3-9.9-13.2 0-24.8 9.5-27.4 22.5-0.7 3.7-4 6.4-7.8 6.4h-0.7c-15.7 0-29.5 11.2-32.8 26.5-0.4 2.2-1.9 4.2-3.9 5.3-2 1.1-4.4 1.3-6.6 0.5-4.3-1.6-8.9-2.4-13.5-2.4-6.8 0-13.4 1.7-19.3 5-2.1 1.1-4.5 1.3-6.7 0.5s-3.9-2.5-4.7-4.7c-5.5-14.9-19.9-24.9-35.8-24.9-14.8 0-28.3 8.6-34.6 21.9-1.3 2.8-4.1 4.6-7.1 4.6-12.4 0.2-23 8.6-26.4 20h685.3c-3.4-1.5-7.1-2.3-11-2.3h-0.6z" fill="#FFFFFF" /><path d="M390.8 661.7c29.5-2.3 55.4-21.9 89.4-15.4 19.7 3.8 39.9 33.4 67.4 33.9 23.6 0.4 34-33.1 50.5-32.5 13.5 0.5 19.5 17.5 61 17.5 18.9 0 34.2-13.7 51.1-27.5H355.6c8.9 12.2 17.4 25.4 35.2 24z" fill="#FFFFFF" /></svg>