<svg width="61" height="66" viewBox="0 0 61 66" fill="none" xmlns="http://www.w3.org/2000/svg">
<path d="M36.4666 5.18376C36.0139 3.49446 34.2775 2.49194 32.5882 2.94459L5.05932 10.3209C3.37001 10.7736 2.3675 12.51 2.82015 14.1993L15.1141 60.0808C15.5667 61.7701 17.3031 62.7726 18.9924 62.3199L46.5213 54.9436C48.2106 54.491 49.2131 52.7546 48.7605 51.0652L36.4666 5.18376Z" fill="#53C1FF"/>
<path fill-rule="evenodd" clip-rule="evenodd" d="M32.1785 1.41521L4.64957 8.79155C2.1156 9.47053 0.611838 12.0751 1.29081 14.6091L13.5847 60.4906C14.2637 63.0245 16.8683 64.5283 19.4023 63.8493L46.9311 56.473C49.4651 55.794 50.9689 53.1894 50.2899 50.6554L37.996 4.77397C37.317 2.24 34.7124 0.736239 32.1785 1.41521ZM32.5883 2.94459C34.2776 2.49195 36.014 3.49446 36.4666 5.18377L48.7605 51.0652C49.2132 52.7546 48.2107 54.491 46.5213 54.9436L18.9925 62.3199C17.3031 62.7726 15.5667 61.7701 15.1141 60.0808L2.82019 14.1993C2.36754 12.51 3.37005 10.7736 5.05937 10.3209L32.5883 2.94459Z" fill="#043E5F"/>
<path fill-rule="evenodd" clip-rule="evenodd" d="M48.7876 52.5976C48.5318 53.7006 47.6912 54.63 46.5212 54.9435L18.9923 62.3199C17.303 62.7725 15.5666 61.77 15.1139 60.0807L2.82001 14.1992C2.36736 12.5099 3.36987 10.7735 5.05918 10.3209L5.16775 10.2918C5.05423 10.7813 5.05588 11.305 5.19501 11.8242L17.4889 57.7057C17.9416 59.395 19.678 60.3975 21.3673 59.9449L48.7876 52.5976Z" fill="#9BDBFF"/>
<path d="M24.2018 8.44344C24.4242 6.70874 26.0107 5.4828 27.7454 5.70522L56.014 9.32983C57.7487 9.55226 58.9747 11.1388 58.7522 12.8735L52.7112 59.9878C52.4888 61.7225 50.9022 62.9485 49.1675 62.726L20.899 59.1014C19.1643 58.879 17.9383 57.2924 18.1607 55.5577L24.2018 8.44344Z" fill="#A6FF35"/>
<path fill-rule="evenodd" clip-rule="evenodd" d="M27.9473 4.13476L56.2158 7.75936C58.8179 8.093 60.6568 10.4728 60.3232 13.0749L54.2822 60.1892C53.9485 62.7912 51.5687 64.6301 48.9666 64.2965L20.6981 60.6719C18.096 60.3383 16.2571 57.9584 16.5907 55.3564L22.6317 8.24208C22.9654 5.64003 25.3452 3.80112 27.9473 4.13476ZM27.7459 5.70523C26.0112 5.48281 24.4246 6.70875 24.2022 8.44345L18.1612 55.5577C17.9388 57.2924 19.1647 58.879 20.8994 59.1014L49.168 62.726C50.9027 62.9485 52.4893 61.7225 52.7117 59.9878L58.7527 12.8735C58.9751 11.1388 57.7492 9.55226 56.0145 9.32984L27.7459 5.70523Z" fill="#345E00"/>
<path fill-rule="evenodd" clip-rule="evenodd" d="M18.2153 56.6712C18.5045 57.926 19.5474 58.9279 20.8993 59.1013L49.1679 62.7259C50.9026 62.9483 52.4892 61.7224 52.7116 59.9876L58.7526 12.8734C58.9616 11.2436 57.8921 9.74457 56.3234 9.38474C56.4052 9.74002 56.4267 10.1156 56.3776 10.4984L50.3366 57.6126C50.1142 59.3473 48.5276 60.5733 46.7929 60.3509L18.5243 56.7263C18.4194 56.7128 18.3163 56.6944 18.2153 56.6712Z" fill="#6EC500"/>
<path d="M14.7065 13.6324C14.7065 11.8835 16.1243 10.4657 17.8732 10.4657H46.3732C48.1221 10.4657 49.5399 11.8835 49.5399 13.6324V61.1324C49.5399 62.8813 48.1221 64.299 46.3732 64.299H17.8732C16.1243 64.299 14.7065 62.8813 14.7065 61.1324V13.6324Z" fill="#FFBA35"/>
<path fill-rule="evenodd" clip-rule="evenodd" d="M17.8735 8.88239H46.3735C48.9969 8.88239 51.1235 11.009 51.1235 13.6324V61.1324C51.1235 63.7557 48.9969 65.8824 46.3735 65.8824H17.8735C15.2502 65.8824 13.1235 63.7557 13.1235 61.1324V13.6324C13.1235 11.009 15.2502 8.88239 17.8735 8.88239ZM17.8735 10.4657C16.1246 10.4657 14.7069 11.8835 14.7069 13.6324V61.1324C14.7069 62.8813 16.1246 64.2991 17.8735 64.2991H46.3735C48.1224 64.2991 49.5402 62.8813 49.5402 61.1324V13.6324C49.5402 11.8835 48.1224 10.4657 46.3735 10.4657H17.8735Z" fill="#501D01"/>
<path fill-rule="evenodd" clip-rule="evenodd" d="M14.9868 62.4359C15.4837 63.5346 16.5894 64.299 17.8736 64.299H46.3736C48.1225 64.299 49.5403 62.8813 49.5403 61.1324V13.6324C49.5403 12.3481 48.7758 11.2425 47.6771 10.7456C47.8569 11.1431 47.957 11.5844 47.957 12.049V61.1324C47.957 62.0068 47.2481 62.7157 46.3736 62.7157H16.2903C15.8256 62.7157 15.3843 62.6156 14.9868 62.4359Z" fill="#CB8C12"/>
<path d="M46.3732 10.4657H17.8732C16.1243 10.4657 14.7065 11.8835 14.7065 13.6324V54.799L49.5399 24.7157V13.6324C49.5399 11.8835 48.1221 10.4657 46.3732 10.4657Z" fill="#FFCD6B"/>
<path d="M14.7065 35.0074L34.4982 17.1667L14.7065 31.0491V35.0074Z" fill="#FFBA35"/>
<path fill-rule="evenodd" clip-rule="evenodd" d="M15.4985 13.6324C15.4985 12.3207 16.5619 11.2574 17.8735 11.2574H44.7902C45.2274 11.2574 45.5819 11.6118 45.5819 12.0491C45.5819 12.4863 45.2274 12.8407 44.7902 12.8407H17.8735C17.4363 12.8407 17.0819 13.1952 17.0819 13.6324V59.5491C17.0819 59.9863 16.7274 60.3407 16.2902 60.3407C15.853 60.3407 15.4985 59.9863 15.4985 59.5491V13.6324Z" fill="#FFE6B5"/>
<path fill-rule="evenodd" clip-rule="evenodd" d="M16.2902 16.7991C16.7274 16.7991 17.0819 17.1535 17.0819 17.5907V25.5074C17.0819 25.9446 16.7274 26.2991 16.2902 26.2991C15.853 26.2991 15.4985 25.9446 15.4985 25.5074V17.5907C15.4985 17.1535 15.853 16.7991 16.2902 16.7991Z" fill="#FFFDFA"/>
<path d="M24.2065 35.85L29.1545 34.8472L30.6388 32.3403L32.1232 29.8333L35.092 34.8472L40.0399 35.85L36.0815 39.8611L37.0711 44.875L32.1232 42.3681L27.1753 44.875L28.1649 39.8611L24.2065 35.85Z" fill="#FFCC45"/>
<path fill-rule="evenodd" clip-rule="evenodd" d="M29.1548 34.8472L32.1236 29.8333L35.0923 34.8472L40.0402 35.85L36.0819 39.8611L37.0715 44.875L32.1236 42.3681L27.1757 44.875L28.1652 39.8611L24.2069 35.85L29.1548 34.8472ZM26.4496 40.3767L23.0799 36.9621C22.6716 36.5484 22.5229 35.9441 22.6924 35.3881C22.862 34.8321 23.3227 34.4137 23.8924 34.2982L28.1508 33.4352L30.7612 29.0266C31.0462 28.5452 31.5641 28.25 32.1236 28.25C32.683 28.25 33.201 28.5452 33.486 29.0266L36.0963 33.4352L40.3547 34.2982C40.9245 34.4137 41.3851 34.8321 41.5547 35.3881C41.7243 35.9441 41.5755 36.5484 41.1672 36.9621L37.7976 40.3767L38.6249 44.5684C38.7421 45.1625 38.5103 45.7714 38.0276 46.137C37.545 46.5027 36.896 46.5611 36.3559 46.2874L32.1236 44.143L27.8913 46.2874C27.3511 46.5611 26.7022 46.5027 26.2195 46.137C25.7369 45.7714 25.505 45.1625 25.6223 44.5684L26.4496 40.3767Z" fill="#C37808"/>
<path fill-rule="evenodd" clip-rule="evenodd" d="M32.5162 32.3126C32.8958 32.5296 33.0277 33.0132 32.8108 33.3928L31.2274 36.1636C31.1204 36.351 30.9414 36.4865 30.7321 36.5389L27.5654 37.3305C27.1412 37.4366 26.7114 37.1787 26.6054 36.7545C26.4993 36.3303 26.7572 35.9005 27.1814 35.7945L30.0203 35.0847L31.436 32.6072C31.653 32.2276 32.1366 32.0957 32.5162 32.3126Z" fill="#FFF8E5"/>
<path d="M18.6654 14C18.6654 14.4372 18.3109 14.7917 17.8737 14.7917C17.4365 14.7917 17.082 14.4372 17.082 14C17.082 13.5628 17.4365 13.2083 17.8737 13.2083C18.3109 13.2083 18.6654 13.5628 18.6654 14Z" fill="#FFE6B5"/>
<path fill-rule="evenodd" clip-rule="evenodd" d="M17.8735 13.2083C17.4363 13.2083 17.0819 13.5628 17.0819 14C17.0819 14.4372 17.4363 14.7917 17.8735 14.7917C18.3108 14.7917 18.6652 14.4372 18.6652 14C18.6652 13.5628 18.3108 13.2083 17.8735 13.2083ZM20.2485 14C20.2485 15.3117 19.1852 16.375 17.8735 16.375C16.5619 16.375 15.4985 15.3117 15.4985 14C15.4985 12.6883 16.5619 11.625 17.8735 11.625C19.1852 11.625 20.2485 12.6883 20.2485 14Z" fill="#F0AA23"/>
<path d="M18.6654 60.7083C18.6654 61.1455 18.3109 61.5 17.8737 61.5C17.4365 61.5 17.082 61.1455 17.082 60.7083C17.082 60.2711 17.4365 59.9167 17.8737 59.9167C18.3109 59.9167 18.6654 60.2711 18.6654 60.7083Z" fill="#FFBA35"/>
<path fill-rule="evenodd" clip-rule="evenodd" d="M17.8735 59.9167C17.4363 59.9167 17.0819 60.2711 17.0819 60.7083C17.0819 61.1456 17.4363 61.5 17.8735 61.5C18.3108 61.5 18.6652 61.1456 18.6652 60.7083C18.6652 60.2711 18.3108 59.9167 17.8735 59.9167ZM20.2485 60.7083C20.2485 62.02 19.1852 63.0833 17.8735 63.0833C16.5619 63.0833 15.4985 62.02 15.4985 60.7083C15.4985 59.3967 16.5619 58.3333 17.8735 58.3333C19.1852 58.3333 20.2485 59.3967 20.2485 60.7083Z" fill="#CB8C12"/>
<path d="M47.1654 14C47.1654 14.4372 46.8109 14.7917 46.3737 14.7917C45.9365 14.7917 45.582 14.4372 45.582 14C45.582 13.5628 45.9365 13.2083 46.3737 13.2083C46.8109 13.2083 47.1654 13.5628 47.1654 14Z" fill="#FFE6B5"/>
<path fill-rule="evenodd" clip-rule="evenodd" d="M46.3735 13.2083C45.9363 13.2083 45.5819 13.5628 45.5819 14C45.5819 14.4372 45.9363 14.7917 46.3735 14.7917C46.8108 14.7917 47.1652 14.4372 47.1652 14C47.1652 13.5628 46.8108 13.2083 46.3735 13.2083ZM48.7485 14C48.7485 15.3117 47.6852 16.375 46.3735 16.375C45.0619 16.375 43.9985 15.3117 43.9985 14C43.9985 12.6883 45.0619 11.625 46.3735 11.625C47.6852 11.625 48.7485 12.6883 48.7485 14Z" fill="#F0AA23"/>
<path d="M47.1654 60.7083C47.1654 61.1455 46.8109 61.5 46.3737 61.5C45.9365 61.5 45.582 61.1455 45.582 60.7083C45.582 60.2711 45.9365 59.9167 46.3737 59.9167C46.8109 59.9167 47.1654 60.2711 47.1654 60.7083Z" fill="#FFBA35"/>
<path fill-rule="evenodd" clip-rule="evenodd" d="M46.3735 59.9167C45.9363 59.9167 45.5819 60.2711 45.5819 60.7083C45.5819 61.1456 45.9363 61.5 46.3735 61.5C46.8108 61.5 47.1652 61.1456 47.1652 60.7083C47.1652 60.2711 46.8108 59.9167 46.3735 59.9167ZM48.7485 60.7083C48.7485 62.02 47.6852 63.0833 46.3735 63.0833C45.0619 63.0833 43.9985 62.02 43.9985 60.7083C43.9985 59.3967 45.0619 58.3333 46.3735 58.3333C47.6852 58.3333 48.7485 59.3967 48.7485 60.7083Z" fill="#CB8C12"/>
<path d="M36.8735 56.3542C36.8735 57.01 36.3419 57.5417 35.686 57.5417C35.0302 57.5417 34.4985 57.01 34.4985 56.3542C34.4985 55.6983 35.0302 55.1667 35.686 55.1667C36.3419 55.1667 36.8735 55.6983 36.8735 56.3542Z" fill="#DE9E23"/>
<path d="M44.7902 57.5417C44.7902 58.4161 44.0813 59.125 43.2069 59.125C42.3324 59.125 41.6235 58.4161 41.6235 57.5417C41.6235 56.6672 42.3324 55.9583 43.2069 55.9583C44.0813 55.9583 44.7902 56.6672 44.7902 57.5417Z" fill="#DE9E23"/>
<path d="M43.9984 52C43.9984 52.4372 43.6439 52.7917 43.2067 52.7917C42.7695 52.7917 42.415 52.4372 42.415 52C42.415 51.5628 42.7695 51.2083 43.2067 51.2083C43.6439 51.2083 43.9984 51.5628 43.9984 52Z" fill="#DE9E23"/>
<path d="M40.0399 59.9167C40.0399 60.3539 39.6854 60.7083 39.2482 60.7083C38.811 60.7083 38.4565 60.3539 38.4565 59.9167C38.4565 59.4794 38.811 59.125 39.2482 59.125C39.6854 59.125 40.0399 59.4794 40.0399 59.9167Z" fill="#DE9E23"/>
<path d="M30.5399 60.7083C30.5399 61.1456 30.1854 61.5 29.7482 61.5C29.311 61.5 28.9565 61.1456 28.9565 60.7083C28.9565 60.2711 29.311 59.9167 29.7482 59.9167C30.1854 59.9167 30.5399 60.2711 30.5399 60.7083Z" fill="#DE9E23"/>
<path d="M34.4984 59.9167C34.4984 60.3539 34.1439 60.7083 33.7067 60.7083C33.2695 60.7083 32.915 60.3539 32.915 59.9167C32.915 59.4794 33.2695 59.125 33.7067 59.125C34.1439 59.125 34.4984 59.4794 34.4984 59.9167Z" fill="#DE9E23"/>
<path d="M40.8319 55.9583C40.8319 56.3956 40.4774 56.75 40.0402 56.75C39.603 56.75 39.2485 56.3956 39.2485 55.9583C39.2485 55.5211 39.603 55.1667 40.0402 55.1667C40.4774 55.1667 40.8319 55.5211 40.8319 55.9583Z" fill="#DE9E23"/>
<path d="M40.0402 52.3958C40.0402 52.6145 39.863 52.7917 39.6444 52.7917C39.4258 52.7917 39.2485 52.6145 39.2485 52.3958C39.2485 52.1772 39.4258 52 39.6444 52C39.863 52 40.0402 52.1772 40.0402 52.3958Z" fill="#DE9E23"/>
<path d="M38.4567 54.7708C38.4567 54.9894 38.2795 55.1667 38.0609 55.1667C37.8423 55.1667 37.665 54.9894 37.665 54.7708C37.665 54.5522 37.8423 54.375 38.0609 54.375C38.2795 54.375 38.4567 54.5522 38.4567 54.7708Z" fill="#DE9E23"/>
<path d="M32.1232 57.1458C32.1232 57.3644 31.946 57.5417 31.7274 57.5417C31.5088 57.5417 31.3315 57.3644 31.3315 57.1458C31.3315 56.9272 31.5088 56.75 31.7274 56.75C31.946 56.75 32.1232 56.9272 32.1232 57.1458Z" fill="#DE9E23"/>
<path d="M41.6232 49.2292C41.6232 49.4478 41.446 49.625 41.2274 49.625C41.0088 49.625 40.8315 49.4478 40.8315 49.2292C40.8315 49.0106 41.0088 48.8333 41.2274 48.8333C41.446 48.8333 41.6232 49.0106 41.6232 49.2292Z" fill="#DE9E23"/>
<path d="M46.3732 50.0208C46.3732 50.2395 46.196 50.4167 45.9774 50.4167C45.7588 50.4167 45.5815 50.2395 45.5815 50.0208C45.5815 49.8022 45.7588 49.625 45.9774 49.625C46.196 49.625 46.3732 49.8022 46.3732 50.0208Z" fill="#DE9E23"/>
<path d="M45.5817 46.0625C45.5817 46.2811 45.4045 46.4583 45.1859 46.4583C44.9673 46.4583 44.79 46.2811 44.79 46.0625C44.79 45.8439 44.9673 45.6667 45.1859 45.6667C45.4045 45.6667 45.5817 45.8439 45.5817 46.0625Z" fill="#DE9E23"/>
<path d="M46.3732 57.9375C46.3732 58.1561 46.196 58.3333 45.9774 58.3333C45.7588 58.3333 45.5815 58.1561 45.5815 57.9375C45.5815 57.7189 45.7588 57.5417 45.9774 57.5417C46.196 57.5417 46.3732 57.7189 46.3732 57.9375Z" fill="#DE9E23"/>
<path d="M43.9982 61.1042C43.9982 61.3228 43.821 61.5 43.6024 61.5C43.3838 61.5 43.2065 61.3228 43.2065 61.1042C43.2065 60.8856 43.3838 60.7083 43.6024 60.7083C43.821 60.7083 43.9982 60.8856 43.9982 61.1042Z" fill="#DE9E23"/>
<path d="M38.4567 57.9375C38.4567 58.1561 38.2795 58.3333 38.0609 58.3333C37.8423 58.3333 37.665 58.1561 37.665 57.9375C37.665 57.7189 37.8423 57.5417 38.0609 57.5417C38.2795 57.5417 38.4567 57.7189 38.4567 57.9375Z" fill="#DE9E23"/>
<path d="M36.8732 60.3125C36.8732 60.5311 36.696 60.7083 36.4774 60.7083C36.2588 60.7083 36.0815 60.5311 36.0815 60.3125C36.0815 60.0939 36.2588 59.9167 36.4774 59.9167C36.696 59.9167 36.8732 60.0939 36.8732 60.3125Z" fill="#DE9E23"/>
<path d="M28.9567 57.9375C28.9567 58.1561 28.7795 58.3333 28.5609 58.3333C28.3423 58.3333 28.165 58.1561 28.165 57.9375C28.165 57.7189 28.3423 57.5417 28.5609 57.5417C28.7795 57.5417 28.9567 57.7189 28.9567 57.9375Z" fill="#DE9E23"/>
<path d="M44.7902 48.4375C44.7902 48.6561 44.613 48.8333 44.3944 48.8333C44.1758 48.8333 43.9985 48.6561 43.9985 48.4375C43.9985 48.2189 44.1758 48.0417 44.3944 48.0417C44.613 48.0417 44.7902 48.2189 44.7902 48.4375Z" fill="#DE9E23"/>
<path d="M46.3734 53.5833C46.3734 54.0206 46.0189 54.375 45.5817 54.375C45.1445 54.375 44.79 54.0206 44.79 53.5833C44.79 53.1461 45.1445 52.7917 45.5817 52.7917C46.0189 52.7917 46.3734 53.1461 46.3734 53.5833Z" fill="#DE9E23"/>
</svg>
