<svg width="150" height="150" viewBox="0 0 150 150" fill="none" xmlns="http://www.w3.org/2000/svg">
<rect x="1.5" y="1.5" width="147" height="147" rx="10.5" fill="white" stroke="#767FAD" stroke-width="3" stroke-dasharray="16 16"/>
<path d="M68.8729 31.207C70.8058 25.9833 78.1942 25.9833 80.1271 31.207L89.3429 56.1122C89.9506 57.7546 91.2454 59.0494 92.8878 59.6571L117.793 68.8729C123.017 70.8058 123.017 78.1942 117.793 80.1271L92.8878 89.3429C91.2454 89.9506 89.9506 91.2454 89.3429 92.8878L80.1271 117.793C78.1942 123.017 70.8058 123.017 68.8729 117.793L59.6571 92.8878C59.0494 91.2454 57.7546 89.9506 56.1122 89.3429L31.207 80.1271C25.9833 78.1942 25.9833 70.8058 31.207 68.8729L56.1122 59.6571C57.7546 59.0494 59.0494 57.7546 59.6571 56.1122L68.8729 31.207Z" fill="#767FAD"/>
</svg>
