<svg width="97" height="97" viewBox="0 0 97 97" fill="none" xmlns="http://www.w3.org/2000/svg">
<g clip-path="url(#clip0_36_5958)">
<circle cx="48.5" cy="48.5" r="41" fill="#FFEF5A" stroke="#A7600C" stroke-width="2"/>
<circle cx="48.5" cy="48.5" r="24" fill="#F2C219"/>
<path fill-rule="evenodd" clip-rule="evenodd" d="M48.5 88.5C70.5914 88.5 88.5 70.5914 88.5 48.5C88.5 26.4086 70.5914 8.5 48.5 8.5C42.0682 8.5 35.991 10.018 30.607 12.7153C35.1457 10.6503 40.1885 9.5 45.5 9.5C65.3822 9.5 81.5 25.6177 81.5 45.5C81.5 65.3822 65.3822 81.5 45.5 81.5C25.6177 81.5 9.5 65.3822 9.5 45.5C9.5 40.1885 10.6503 35.1457 12.7153 30.607C10.018 35.991 8.5 42.0682 8.5 48.5C8.5 70.5914 26.4086 88.5 48.5 88.5Z" fill="#FDD443"/>
<path fill-rule="evenodd" clip-rule="evenodd" d="M46.4994 87.4999C68.5908 87.4999 86.4994 69.5913 86.4994 47.4999C86.4994 32.2287 77.9416 18.9563 65.3602 12.2167C79.026 18.578 88.4993 32.4327 88.4993 48.5C88.4993 70.5914 70.5907 88.5 48.4993 88.5C41.6792 88.5 35.2576 86.7931 29.6387 83.7832C34.7624 86.1682 40.4754 87.4999 46.4994 87.4999Z" fill="#F3B30D"/>
<circle cx="56.5" cy="50.4999" r="2" fill="#FFF6A5"/>
<circle cx="67.5" cy="58.4999" r="2" fill="#F49300"/>
<circle cx="66.5" cy="49.4999" r="1" fill="#F49300"/>
<circle cx="61.5" cy="53.4999" r="1" fill="#F49300"/>
<circle cx="75.5" cy="59.4999" r="1" fill="#F49300"/>
<circle cx="69.5" cy="79.4999" r="1" fill="#F49300"/>
<circle cx="57.5" cy="67.4999" r="1" fill="#F49300"/>
<circle cx="51.5" cy="74.4999" r="1" fill="#F49300"/>
<circle cx="47.5" cy="61.4999" r="1" fill="#F49300"/>
<circle cx="52.5" cy="55.4999" r="1" fill="#F49300"/>
<circle cx="69.5" cy="52.4999" r="1" fill="#F49300"/>
<circle cx="69.5" cy="45.4999" r="1" fill="#F49300"/>
<circle cx="47.5" cy="56.4999" r="2" fill="#FFF6A5"/>
<circle cx="39" cy="62.9999" r="1.5" fill="#FFF6A5"/>
<circle cx="74" cy="65.9999" r="1.5" fill="#FFF6A5"/>
<circle cx="75" cy="52.9999" r="1.5" fill="#FFF6A5"/>
<circle cx="72" cy="48.9999" r="1.5" fill="#FFF6A5"/>
<circle cx="59" cy="42.9999" r="1.5" fill="#FFF6A5"/>
<circle cx="48" cy="46.9999" r="1.5" fill="#FFF6A5"/>
<circle cx="71" cy="73.9999" r="1.5" fill="#FFF6A5"/>
<circle cx="54" cy="79.9999" r="1.5" fill="#FFF6A5"/>
<circle cx="61.5" cy="76.4999" r="1" fill="#FFF6A5"/>
<circle cx="57.5" cy="56.4999" r="1" fill="#FFF6A5"/>
<circle cx="60.5" cy="63.4999" r="1" fill="#FFF6A5"/>
<circle cx="53.5" cy="59.4999" r="1" fill="#FFF6A5"/>
<circle cx="54.5" cy="54.4999" r="1" fill="#FFF6A5"/>
<circle cx="71.5" cy="55.4999" r="1" fill="#FFF6A5"/>
<circle cx="76.5" cy="47.4999" r="1" fill="#FFF6A5"/>
<circle cx="70.5" cy="62.4999" r="1" fill="#FFF6A5"/>
<circle cx="72.5" cy="69.4999" r="1" fill="#FFF6A5"/>
<circle cx="66.5" cy="53.4999" r="1" fill="#FFF6A5"/>
<circle cx="49.5" cy="66.4999" r="2" fill="#FFF6A5"/>
<circle cx="56.5" cy="60.4999" r="2" fill="#F49300"/>
<circle cx="64" cy="67.9999" r="2.5" fill="#F49300"/>
<circle cx="55" cy="71.9999" r="2.5" fill="#FFF6A5"/>
<path d="M10.5 48.5C10.5 27.5132 27.5132 10.5 48.5 10.5" stroke="#FFFCE2" stroke-width="2" stroke-linecap="round" stroke-linejoin="round"/>
<path d="M23.4729 25.5288C36.4498 11.4027 58.4212 10.4711 72.5473 23.448" stroke="#EBCA1D" stroke-width="2" stroke-linecap="round" stroke-linejoin="round"/>
<path d="M30.5 15.0252C27.5835 16.5967 24.8959 18.5383 22.5 20.787" stroke="white" stroke-width="2" stroke-linecap="round" stroke-linejoin="round"/>
<path d="M27.8517 36.5726C31.1359 30.9411 40.1722 20.3182 55.6472 23.9271" stroke="white" stroke-width="2" stroke-linecap="round" stroke-linejoin="round"/>
<path d="M37.5 22.5V31.5" stroke="white" stroke-width="2" stroke-linecap="round" stroke-linejoin="round"/>
<path d="M34.5 26.5H40.5" stroke="white" stroke-width="2" stroke-linecap="round" stroke-linejoin="round"/>
<path d="M20.5 49.4999V56.4999" stroke="white" stroke-width="2" stroke-linecap="round" stroke-linejoin="round"/>
<path d="M18.5 52.4999H22.5" stroke="white" stroke-width="2" stroke-linecap="round" stroke-linejoin="round"/>
<path d="M44.5 70.5V77.5" stroke="white" stroke-width="2" stroke-linecap="round" stroke-linejoin="round"/>
<path d="M42.5 73.5H46.5" stroke="white" stroke-width="2" stroke-linecap="round" stroke-linejoin="round"/>
<path d="M38.0859 34.4999C32.7693 39.3172 27.5643 51.6039 35.8163 65.5378" stroke="#FFE99C" stroke-width="2" stroke-linecap="round" stroke-linejoin="round"/>
<path d="M54.119 43.3192C52.5558 41.7559 50.0283 41.7334 48.4374 43.2685L13.1696 77.2987C11.1858 79.2129 11.1575 82.382 13.1068 84.3314C15.0561 86.2807 18.2252 86.2524 20.1394 84.2686L54.1697 49.0008C55.7048 47.4099 55.6823 44.8824 54.119 43.3192Z" fill="#57F0CB" stroke="#167F86" stroke-width="2"/>
<path fill-rule="evenodd" clip-rule="evenodd" d="M13.358 83.0794C13.4907 83.2711 13.6424 83.4535 13.8132 83.6243C15.367 85.1781 17.8932 85.1556 19.4191 83.5742L53.4493 48.3065C54.6058 47.108 54.5888 45.204 53.4111 44.0263C53.2391 43.8543 53.0515 43.707 52.8529 43.5845C53.5687 44.7452 53.4368 46.2831 52.4493 47.3065L18.4191 82.5742C17.0609 83.9818 14.9101 84.1544 13.358 83.0794Z" fill="#2CCDC3"/>
<path d="M49.9999 45.4995L15.5 78.9999" stroke="white" stroke-width="2" stroke-linecap="round" stroke-linejoin="round"/>
<path d="M62.1291 25.3194L57.4894 22.2262C55.4957 20.8971 52.8253 22.3263 52.8253 24.7224L52.8253 31.2287C52.8253 31.563 52.6582 31.8753 52.38 32.0607L48.1878 34.8555C46.1106 36.2403 46.5348 39.4083 48.9032 40.1977L54.6817 42.1239C54.9803 42.2234 55.2146 42.4577 55.3141 42.7563L57.2403 48.5348C58.0297 50.9032 61.1977 51.3274 62.5825 49.2503L65.3773 45.0581C65.5628 44.7799 65.875 44.6128 66.2093 44.6128L72.7157 44.6128C75.1117 44.6128 76.5409 41.9423 75.2118 39.9487L72.1186 35.3089C71.9624 35.0745 71.9122 34.785 71.9806 34.5117L73.7859 27.2901C74.3352 25.093 72.3451 23.1028 70.1479 23.6521L67.7249 24.2578L62.9263 25.4575C62.653 25.5258 62.3635 25.4757 62.1291 25.3194Z" fill="#C069F5" stroke="#6C0CA7" stroke-width="2" stroke-linecap="round" stroke-linejoin="round"/>
<path fill-rule="evenodd" clip-rule="evenodd" d="M47.8547 37.4608C47.8982 38.2276 48.3723 38.9666 49.2195 39.249L54.4466 40.9914L54.2629 40.4401C54.0638 39.8429 53.5952 39.3742 52.998 39.1752L47.8547 37.4608ZM57.9773 47.5833L58.189 48.2186C58.7153 49.7974 60.8273 50.0803 61.7505 48.6955L64.5453 44.5033C64.9162 43.9469 65.5407 43.6127 66.2094 43.6127L72.7157 43.6127C74.3131 43.6127 75.2659 41.8324 74.3798 40.5033L71.2866 35.8636C70.9741 35.3947 70.8738 34.8158 71.0105 34.2691L72.8159 27.0475C73.1409 25.7475 72.1323 24.5562 70.8774 24.5606C70.8768 24.7197 70.857 24.8827 70.8159 25.0475L69.0105 32.2691C68.8738 32.8158 68.9741 33.3947 69.2866 33.8636L72.3798 38.5033C73.2659 39.8324 72.3131 41.6127 70.7157 41.6127L64.2094 41.6127C63.5407 41.6127 62.9162 41.9469 62.5453 42.5033L59.7505 46.6955C59.3227 47.3372 58.6396 47.6208 57.9773 47.5833Z" fill="#A53EE4"/>
<path d="M56.499 25.5005L61.999 29.0005L70.499 27.0005" stroke="#FFE1F3" stroke-width="2" stroke-linecap="round" stroke-linejoin="round"/>
</g>
<defs>
<clipPath id="clip0_36_5958">
<rect width="96" height="96" fill="white" transform="translate(0.5 0.5)"/>
</clipPath>
</defs>
</svg>
