<svg width="35" height="35" viewBox="0 0 35 35" fill="none" xmlns="http://www.w3.org/2000/svg">
<path fill-rule="evenodd" clip-rule="evenodd" d="M21.1459 4.375H24.6876L19.2709 13.8542L25.5209 24.7917H18.9584L18.1251 23.3333H21.1459L17.5001 16.9531L13.8542 23.3333H16.8751L16.0417 24.7917H9.47925L15.7292 13.8542L10.3126 4.375H13.8542L17.5001 10.7552L21.1459 4.375Z" fill="#AF3838"/>
<path fill-rule="evenodd" clip-rule="evenodd" d="M25.3182 4.00902C25.4486 4.23383 25.4496 4.5111 25.3206 4.73678L20.1107 13.8542L26.1539 24.4299C26.2829 24.6556 26.282 24.9329 26.1515 25.1577C26.021 25.3825 25.7808 25.5208 25.5208 25.5208H18.9583C18.6967 25.5208 18.4551 25.3806 18.3252 25.1534L17.5 23.7093L16.6748 25.1534C16.5449 25.3806 16.3033 25.5208 16.0417 25.5208H9.47917C9.21924 25.5208 8.97897 25.3825 8.8485 25.1577C8.71804 24.9329 8.71711 24.6556 8.84607 24.4299L14.8893 13.8542L9.6794 4.73678C9.55044 4.5111 9.55137 4.23383 9.68183 4.00902C9.8123 3.78421 10.0526 3.64584 10.3125 3.64584H13.8542C14.1158 3.64584 14.3574 3.78605 14.4873 4.01324L17.5 9.28554L20.5127 4.01324C20.6426 3.78605 20.8842 3.64584 21.1458 3.64584H24.6875C24.9474 3.64584 25.1877 3.78421 25.3182 4.00902ZM17.5 10.7552L13.8542 4.37501H10.3125L15.7292 13.8542L9.47917 24.7917H16.0417L16.875 23.3333H13.8542L17.5 16.9531L21.1458 23.3333H18.125L18.9583 24.7917H25.5208L19.2708 13.8542L24.6875 4.37501H21.1458L17.5 10.7552ZM19.8893 22.6042L17.5 18.4228L15.1107 22.6042H16.875C17.1312 22.6042 17.3683 22.7386 17.5 22.9578C17.6317 22.7386 17.8688 22.6042 18.125 22.6042H19.8893Z" fill="#6F0808"/>
<path fill-rule="evenodd" clip-rule="evenodd" d="M10.2085 2.91666H3.646L9.95472 13.9569C11.331 12.6451 13.0488 11.6883 14.9611 11.2337L10.2085 2.91666ZM20.0392 11.2337C21.9516 11.6883 23.6694 12.6451 25.0456 13.9569L31.3543 2.91666H24.7918L20.0392 11.2337Z" fill="#D14848"/>
<path fill-rule="evenodd" clip-rule="evenodd" d="M3.01525 2.55068C3.14572 2.32587 3.38599 2.1875 3.64591 2.1875H10.2084C10.4701 2.1875 10.7117 2.32771 10.8415 2.5549L15.5941 10.872C15.7081 11.0715 15.7214 11.313 15.63 11.5238C15.5386 11.7346 15.3532 11.89 15.1297 11.9431C13.3462 12.3671 11.743 13.2596 10.4577 14.4847C10.2955 14.6394 10.0711 14.7109 9.84921 14.6784C9.62737 14.646 9.43278 14.5134 9.32155 14.3187L3.01282 3.27843C2.88386 3.05276 2.88479 2.77549 3.01525 2.55068ZM19.3702 11.5238C19.2787 11.313 19.292 11.0715 19.406 10.872L24.1587 2.5549C24.2885 2.32771 24.5301 2.1875 24.7917 2.1875H31.3542C31.6142 2.1875 31.8544 2.32587 31.9849 2.55068C32.1154 2.77549 32.1163 3.05276 31.9873 3.27843L25.6786 14.3187C25.5674 14.5134 25.3728 14.646 25.1509 14.6784C24.9291 14.7109 24.7047 14.6394 24.5424 14.4847C23.2572 13.2596 21.654 12.3671 19.8705 11.9431C19.647 11.89 19.4616 11.7346 19.3702 11.5238ZM3.64591 2.91667L9.95464 13.9569C10.1344 13.7855 10.3201 13.6202 10.5112 13.4613C11.5954 12.5597 12.8567 11.8637 14.2351 11.4331C14.4737 11.3586 14.7158 11.292 14.961 11.2337L10.2084 2.91667H3.64591ZM24.4889 13.4613C24.6801 13.6202 24.8657 13.7855 25.0455 13.9569L31.3542 2.91667H24.7917L20.0391 11.2337C20.2844 11.292 20.5265 11.3586 20.765 11.4331C22.1435 11.8637 23.4047 12.5597 24.4889 13.4613Z" fill="#6F0808"/>
<path fill-rule="evenodd" clip-rule="evenodd" d="M4.55673 3.33046C4.7309 3.22943 4.954 3.28874 5.05502 3.46291L10.3415 12.5775C10.4425 12.7517 10.3832 12.9748 10.209 13.0758C10.0348 13.1768 9.81175 13.1175 9.71073 12.9433L4.42427 3.82875C4.32324 3.65457 4.38255 3.43148 4.55673 3.33046Z" fill="#FF7E7E"/>
<path fill-rule="evenodd" clip-rule="evenodd" d="M25.338 3.32977C25.5125 3.43014 25.5727 3.65301 25.4723 3.82757L21.2796 11.1192C21.1792 11.2938 20.9563 11.3539 20.7818 11.2536C20.6072 11.1532 20.5471 10.9303 20.6475 10.7558L24.8402 3.4641C24.9405 3.28954 25.1634 3.22941 25.338 3.32977Z" fill="#FF7E7E"/>
<path d="M27.7084 21.875C27.7084 27.5129 23.138 32.0833 17.5001 32.0833C11.8622 32.0833 7.29175 27.5129 7.29175 21.875C7.29175 16.2371 11.8622 11.6667 17.5001 11.6667C23.138 11.6667 27.7084 16.2371 27.7084 21.875Z" fill="#FFB423"/>
<path fill-rule="evenodd" clip-rule="evenodd" d="M28.4375 21.875C28.4375 27.9156 23.5406 32.8125 17.5 32.8125C11.4594 32.8125 6.5625 27.9156 6.5625 21.875C6.5625 15.8344 11.4594 10.9375 17.5 10.9375C23.5406 10.9375 28.4375 15.8344 28.4375 21.875ZM17.5 32.0833C23.1379 32.0833 27.7083 27.5129 27.7083 21.875C27.7083 16.2371 23.1379 11.6667 17.5 11.6667C11.8621 11.6667 7.29167 16.2371 7.29167 21.875C7.29167 27.5129 11.8621 32.0833 17.5 32.0833Z" fill="#5B3303"/>
<path d="M25.8856 21.875C25.8856 26.5061 22.1313 30.2604 17.5002 30.2604C12.869 30.2604 9.11475 26.5061 9.11475 21.875C9.11475 17.2439 12.869 13.4896 17.5002 13.4896C22.1313 13.4896 25.8856 17.2439 25.8856 21.875Z" fill="#FFDD65"/>
<path d="M22.8457 28.4947C22.9036 28.8933 22.6275 29.2633 22.2289 29.3212C21.8304 29.3791 21.4604 29.103 21.4025 28.7045C21.3446 28.306 21.6207 27.936 22.0192 27.878C22.4177 27.8201 22.7877 28.0962 22.8457 28.4947Z" fill="#FBCD2C"/>
<path d="M22.5375 26.3745C22.5919 26.7485 22.3328 27.0957 21.9588 27.15C21.5849 27.2044 21.2377 26.9453 21.1834 26.5714C21.129 26.1974 21.3881 25.8502 21.762 25.7959C22.136 25.7415 22.4832 26.0006 22.5375 26.3745Z" fill="#FBCD2C"/>
<path d="M25.5883 24.2391C25.6317 24.538 25.4246 24.8155 25.1257 24.8589C24.8269 24.9024 24.5493 24.6953 24.5059 24.3964C24.4625 24.0975 24.6695 23.82 24.9684 23.7765C25.2673 23.7331 25.5448 23.9402 25.5883 24.2391Z" fill="#FBCD2C"/>
<path d="M18.9291 29.4324C18.9871 29.8309 18.711 30.2009 18.3124 30.2588C17.9139 30.3167 17.5439 30.0406 17.486 29.6421C17.4281 29.2436 17.7042 28.8736 18.1027 28.8157C18.5012 28.7577 18.8712 29.0338 18.9291 29.4324Z" fill="#FBCD2C"/>
<path d="M24.5128 25.7454C24.5651 26.105 24.3159 26.439 23.9562 26.4912C23.5966 26.5435 23.2626 26.2943 23.2104 25.9347C23.1581 25.575 23.4073 25.2411 23.7669 25.1888C24.1266 25.1365 24.4605 25.3857 24.5128 25.7454Z" fill="#FBCD2C"/>
<path d="M24.1073 23.3296C24.1362 23.5288 23.9982 23.7138 23.7989 23.7428C23.5997 23.7717 23.4147 23.6337 23.3857 23.4344C23.3567 23.2352 23.4948 23.0502 23.694 23.0212C23.8933 22.9922 24.0783 23.1303 24.1073 23.3296Z" fill="#FBCD2C"/>
<path d="M19.7325 28.0691C19.7615 28.2684 19.6234 28.4534 19.4242 28.4823C19.2249 28.5113 19.0399 28.3733 19.0109 28.174C18.982 27.9747 19.12 27.7897 19.3193 27.7608C19.5185 27.7318 19.7036 27.8699 19.7325 28.0691Z" fill="#FBCD2C"/>
<path d="M24.5445 27.511C24.5735 27.7102 24.4354 27.8953 24.2362 27.9242C24.0369 27.9532 23.8519 27.8151 23.8229 27.6159C23.794 27.4166 23.932 27.2316 24.1313 27.2026C24.3306 27.1737 24.5156 27.3117 24.5445 27.511Z" fill="#FBCD2C"/>
<path d="M20.4615 29.1629C20.4905 29.3621 20.3524 29.5471 20.1532 29.5761C19.9539 29.6051 19.7689 29.467 19.7399 29.2677C19.711 29.0685 19.849 28.8835 20.0483 28.8545C20.2476 28.8256 20.4326 28.9636 20.4615 29.1629Z" fill="#FBCD2C"/>
<path d="M16.4562 30.1602C16.4851 30.3595 16.3471 30.5445 16.1478 30.5734C15.9485 30.6024 15.7635 30.4643 15.7346 30.2651C15.7056 30.0658 15.8437 29.8808 16.0429 29.8519C16.2422 29.8229 16.4272 29.961 16.4562 30.1602Z" fill="#FBCD2C"/>
<path fill-rule="evenodd" clip-rule="evenodd" d="M17.5001 13.4896C12.8689 13.4896 9.11466 17.2439 9.11466 21.875C9.11466 26.5061 12.8689 30.2604 17.5001 30.2604C22.1312 30.2604 25.8855 26.5061 25.8855 21.875C25.8855 17.2439 22.1312 13.4896 17.5001 13.4896ZM8.3855 21.875C8.3855 16.8411 12.4662 12.7604 17.5001 12.7604C22.5339 12.7604 26.6147 16.8411 26.6147 21.875C26.6147 26.9088 22.5339 30.9896 17.5001 30.9896C12.4662 30.9896 8.3855 26.9088 8.3855 21.875Z" fill="#DF8D12"/>
<path fill-rule="evenodd" clip-rule="evenodd" d="M17.5 12.7604C12.4662 12.7604 8.38542 16.8412 8.38542 21.875C8.38542 22.0764 8.22219 22.2396 8.02083 22.2396C7.81948 22.2396 7.65625 22.0764 7.65625 21.875C7.65625 16.4384 12.0634 12.0312 17.5 12.0312C17.7014 12.0312 17.8646 12.1945 17.8646 12.3958C17.8646 12.5972 17.7014 12.7604 17.5 12.7604Z" fill="#FFCF72"/>
<path d="M23.6981 21.875C23.6981 25.298 20.9232 28.0729 17.5002 28.0729C14.0771 28.0729 11.3022 25.298 11.3022 21.875C11.3022 18.452 14.0771 15.6771 17.5002 15.6771C20.9232 15.6771 23.6981 18.452 23.6981 21.875Z" fill="#FFCF23"/>
<path fill-rule="evenodd" clip-rule="evenodd" d="M24.4272 21.875C24.4272 25.7007 21.3258 28.8021 17.5001 28.8021C13.6744 28.8021 10.573 25.7007 10.573 21.875C10.573 18.0493 13.6744 14.9479 17.5001 14.9479C21.3258 14.9479 24.4272 18.0493 24.4272 21.875ZM17.5001 28.0729C20.9231 28.0729 23.698 25.298 23.698 21.875C23.698 18.452 20.9231 15.6771 17.5001 15.6771C14.0771 15.6771 11.3022 18.452 11.3022 21.875C11.3022 25.298 14.0771 28.0729 17.5001 28.0729Z" fill="#DF8D12"/>
<path fill-rule="evenodd" clip-rule="evenodd" d="M17.5002 16.4063C14.4799 16.4063 12.0314 18.8547 12.0314 21.875C12.0314 22.0764 11.8682 22.2396 11.6668 22.2396C11.4655 22.2396 11.3022 22.0764 11.3022 21.875C11.3022 18.452 14.0771 15.6771 17.5002 15.6771C17.7015 15.6771 17.8647 15.8403 17.8647 16.0417C17.8647 16.243 17.7015 16.4063 17.5002 16.4063Z" fill="#FFF4CD"/>
<path d="M13.8542 21L16.1329 20.5382L16.8165 19.3837L17.5001 18.2292L18.8673 20.5382L21.1459 21L19.323 22.8472L19.7787 25.1562L17.5001 24.0017L15.2214 25.1562L15.6772 22.8472L13.8542 21Z" fill="#FFE9AF"/>
<path fill-rule="evenodd" clip-rule="evenodd" d="M16.1328 20.5382L17.5 18.2292L18.8672 20.5382L21.1459 21L19.3229 22.8472L19.7787 25.1563L17.5 24.0017L15.2214 25.1563L15.6771 22.8472L13.8542 21L16.1328 20.5382ZM14.887 23.0847L13.3352 21.5122C13.1471 21.3216 13.0786 21.0434 13.1567 20.7873C13.2348 20.5312 13.447 20.3385 13.7094 20.2854L15.6705 19.8879L16.8726 17.8577C17.0039 17.636 17.2424 17.5 17.5 17.5C17.7577 17.5 17.9962 17.636 18.1274 17.8577L19.3296 19.8879L21.2907 20.2854C21.5531 20.3385 21.7652 20.5312 21.8433 20.7873C21.9214 21.0434 21.8529 21.3216 21.6649 21.5122L20.113 23.0847L20.494 25.0151C20.548 25.2886 20.4413 25.5691 20.219 25.7375C19.9967 25.9059 19.6979 25.9327 19.4491 25.8067L17.5 24.8192L15.5509 25.8067C15.3022 25.9327 15.0033 25.9059 14.7811 25.7375C14.5588 25.5691 14.452 25.2886 14.506 25.0151L14.887 23.0847Z" fill="#C37808"/>
<path d="M28.0732 4.37499C28.0732 4.57634 27.9099 4.73957 27.7086 4.73957C27.5072 4.73957 27.344 4.57634 27.344 4.37499C27.344 4.17364 27.5072 4.01041 27.7086 4.01041C27.9099 4.01041 28.0732 4.17364 28.0732 4.37499Z" fill="#A63434"/>
<path d="M29.5314 4.37499C29.5314 4.57634 29.3682 4.73957 29.1668 4.73957C28.9655 4.73957 28.8022 4.57634 28.8022 4.37499C28.8022 4.17364 28.9655 4.01041 29.1668 4.01041C29.3682 4.01041 29.5314 4.17364 29.5314 4.37499Z" fill="#A63434"/>
<path d="M27.7084 8.02083C27.7084 8.22219 27.5452 8.38542 27.3438 8.38542C27.1425 8.38542 26.9792 8.22219 26.9792 8.02083C26.9792 7.81948 27.1425 7.65625 27.3438 7.65625C27.5452 7.65625 27.7084 7.81948 27.7084 8.02083Z" fill="#A63434"/>
<path d="M26.2502 10.2083C26.2502 10.4097 26.0869 10.5729 25.8856 10.5729C25.6842 10.5729 25.521 10.4097 25.521 10.2083C25.521 10.007 25.6842 9.84375 25.8856 9.84375C26.0869 9.84375 26.2502 10.007 26.2502 10.2083Z" fill="#A63434"/>
<path d="M26.6147 5.46874C26.6147 5.67009 26.4514 5.83332 26.2501 5.83332C26.0487 5.83332 25.8855 5.67009 25.8855 5.46874C25.8855 5.26739 26.0487 5.10416 26.2501 5.10416C26.4514 5.10416 26.6147 5.26739 26.6147 5.46874Z" fill="#A63434"/>
<path d="M28.073 6.38019C28.073 6.68222 27.8282 6.92706 27.5261 6.92706C27.2241 6.92706 26.9792 6.68222 26.9792 6.38019C26.9792 6.07816 27.2241 5.83331 27.5261 5.83331C27.8282 5.83331 28.073 6.07816 28.073 6.38019Z" fill="#A63434"/>
<path d="M26.6147 8.20312C26.6147 8.50516 26.3699 8.75 26.0679 8.75C25.7658 8.75 25.521 8.50516 25.521 8.20312C25.521 7.90109 25.7658 7.65625 26.0679 7.65625C26.3699 7.65625 26.6147 7.90109 26.6147 8.20312Z" fill="#A63434"/>
</svg>
