<svg width="408" height="175" viewBox="0 0 408 175" fill="none" xmlns="http://www.w3.org/2000/svg">
<path d="M154.15 94.6028C153.83 95.2127 153.397 95.8017 152.838 96.3494C152.838 96.35 152.837 96.3507 152.836 96.3514L142.265 106.653L142.264 106.655C139.712 109.148 138.539 112.743 139.144 116.262L141.638 130.815L141.639 130.822C141.744 131.421 141.766 132.005 141.72 132.561L141.72 132.57C141.356 137.258 136.168 140.399 131.688 138.045C131.688 138.045 131.688 138.045 131.688 138.045L122.525 133.229L122.088 132.999H122.085L118.621 131.176L118.619 131.175C115.456 129.513 111.681 129.514 108.516 131.174L108.514 131.175L99.09 136.13L99.0895 136.13L95.4511 138.044L154.15 94.6028ZM154.15 94.6028C153.695 92.0058 152.436 89.5783 150.501 87.7008L150.498 87.6976L147.092 84.3763L134.432 82.5359L154.15 94.6028ZM87.9901 116.266L85.4999 130.818L85.4995 130.821C85.073 133.296 85.9676 135.484 87.5447 136.957L87.5466 136.959C89.5689 138.853 92.6371 139.52 95.449 138.046L87.9901 116.266ZM87.9901 116.266C87.9902 116.265 87.9902 116.265 87.9902 116.265C88.5941 112.75 87.4322 109.153 84.8684 106.657M87.9901 116.266L84.8684 106.657M84.8684 106.657C84.8681 106.657 84.8678 106.657 84.8675 106.656L74.3023 96.3524L74.3023 96.3524C70.2321 92.3834 72.4773 85.4751 78.1032 84.6566C78.1034 84.6566 78.1035 84.6565 78.1037 84.6565L92.7134 82.5358L84.8684 106.657ZM107.422 63.3551L107.422 63.3555L104.04 70.2063L104.039 70.207L100.889 76.5942C100.889 76.5944 100.889 76.5946 100.888 76.5949C99.3089 79.7992 96.2475 82.023 92.7135 82.5358L107.422 63.3551ZM107.422 63.3551C109.937 58.2599 117.204 58.2579 119.723 63.3559L121.839 67.6447L121.84 67.6452L126.253 76.5946L126.253 76.5953M107.422 63.3551L126.253 76.5953M126.253 76.5953C127.836 79.802 130.889 82.0227 134.431 82.5357L126.253 76.5953Z" fill="white" stroke="#F4B331" stroke-width="4"/>
<path d="M318.567 130.816L318.567 130.815L316.073 116.262C315.469 112.747 316.631 109.148 319.196 106.653L329.764 96.3415L329.765 96.3406C333.834 92.3758 331.59 85.464 325.964 84.6454L318.567 130.816ZM318.567 130.816C319.005 133.364 318.039 135.617 316.362 137.103C314.335 138.886 311.351 139.485 308.609 138.045L303.809 135.518L303.808 135.517L295.545 131.175L295.544 131.174C292.379 129.514 288.603 129.513 285.44 131.175L285.439 131.175L282.084 132.941L282.083 132.941L272.372 138.041L272.372 138.041C267.829 140.428 262.563 137.166 262.329 132.374L262.328 132.365L262.328 132.356C262.3 131.874 262.329 131.357 262.422 130.809C262.422 130.809 262.422 130.808 262.422 130.808L264.916 116.258C265.521 112.74 264.348 109.144 261.796 106.651L261.794 106.65L251.22 96.3446C250.664 95.8023 250.231 95.213 249.91 94.601C250.368 92.0009 251.625 89.5754 253.564 87.6873L253.565 87.6864L256.972 84.3651L269.631 82.5247C273.171 82.0119 276.227 79.7871 277.81 76.5851L277.81 76.584L282.373 67.3392L282.373 67.339L284.344 63.3447C284.344 63.3444 284.344 63.3442 284.344 63.3439C286.863 58.2467 294.13 58.249 296.645 63.3439L296.645 63.3441L299.818 69.7726L299.818 69.7737L303.175 76.5831L303.175 76.5841C304.758 79.7917 307.816 82.0118 311.354 82.5246C311.354 82.5246 311.354 82.5246 311.354 82.5247L325.963 84.6453L318.567 130.816Z" fill="white" stroke="#F4B331" stroke-width="4"/>
<path d="M268.394 67.6524L268.392 67.6543L255.117 80.5977L254.454 80.6944C254.453 80.6945 254.453 80.6945 254.453 80.6945C247.243 81.7433 243.568 89.0898 245.804 95.171C245.654 96.65 245.702 98.1607 245.96 99.6582L250.116 123.897L250.116 123.897C250.561 126.489 250.222 128.902 249.337 131.002C246.597 137.487 238.636 141.049 231.604 137.351L231.604 137.351L214.675 128.453L214.238 128.223H214.235L209.833 125.907L209.832 125.907C204.952 123.341 199.118 123.341 194.238 125.907L194.238 125.907L189.298 128.505L189.298 128.506L172.466 137.355L172.466 137.355C165.505 141.017 157.622 137.561 154.811 131.186C153.868 129.048 153.496 126.568 153.955 123.905L153.955 123.904L158.11 99.6656C158.11 99.6654 158.111 99.6652 158.111 99.6649C158.111 99.6647 158.111 99.6645 158.111 99.6643C158.368 98.1664 158.416 96.6553 158.266 95.1759C160.507 89.0893 156.826 81.7505 149.617 80.702C149.617 80.7019 149.617 80.7019 149.617 80.7019L148.953 80.6052L135.68 67.6637C135.68 67.6635 135.68 67.6634 135.679 67.6632C134.802 66.8051 134.087 65.8876 133.522 64.9279L133.522 64.9275C129.132 57.474 133.494 47.2395 142.746 45.8961C142.746 45.8961 142.746 45.8961 142.746 45.8961L167.083 42.3639L167.084 42.3637C172.547 41.567 177.266 38.1422 179.708 33.1937L179.708 33.1936L190.592 11.1381C190.592 11.1381 190.592 11.1381 190.592 11.138C195.273 1.65473 208.798 1.65475 213.478 11.1381L224.362 33.1936L224.362 33.1943C226.808 38.1446 231.522 41.571 236.984 42.3639L236.984 42.3639L261.321 45.8961L261.321 45.8962C270.477 47.223 274.845 57.2573 270.677 64.6941C270.091 65.7384 269.334 66.7387 268.394 67.6524Z" fill="white" stroke="#F4B331" stroke-width="4"/>
<path d="M381.336 143.953L403.235 172.314H351.436C333.469 172.314 317.451 163.962 307.06 150.92C299.335 141.227 294.716 128.946 294.716 115.594H403.239L381.336 143.953Z" fill="white"/>
<path d="M407.047 174.189H351.432C333.491 174.189 316.783 166.135 305.589 152.089C297.247 141.623 292.834 129.002 292.834 115.594V113.72H407.043L383.7 143.956L407.047 174.189ZM296.616 117.465C297.008 129.316 301.104 140.443 308.52 149.747C318.997 162.894 334.638 170.436 351.432 170.436H399.419L378.969 143.949L399.419 117.461H296.616V117.465Z" fill="#F4B331"/>
<path d="M112.335 115.591C112.335 128.946 107.716 141.227 99.9947 150.916C89.5998 163.958 73.5818 172.311 55.6111 172.311H3.81592L25.7146 143.949L3.81592 115.587H112.335V115.591Z" fill="white"/>
<path d="M55.6149 174.189H0L23.3437 143.953L0 113.716H114.209V115.591C114.209 128.999 109.8 141.619 101.462 152.085C90.2682 166.131 73.5557 174.189 55.6149 174.189ZM7.62814 170.44H55.6149C72.4095 170.44 88.0541 162.898 98.5311 149.751C105.946 140.443 110.042 129.316 110.431 117.465H7.62814L28.0781 143.953L7.62814 170.44Z" fill="#F4B331"/>
<path d="M307.758 148.799C238.668 138.311 168.383 138.311 99.2929 148.799C67.6975 153.519 34.9074 130.601 25.6177 94.4014C142.564 66.327 264.491 66.327 381.437 94.4014C372.144 130.601 339.353 153.519 307.758 148.799Z" fill="white"/>
<path d="M316.092 151.435C313.206 151.435 310.323 151.222 307.459 150.797H307.456C238.492 140.327 168.558 140.327 99.5953 150.797C83.6184 153.183 67.0366 148.844 52.9042 138.58C38.6112 128.2 28.2275 112.69 23.6611 94.9055L23.1533 92.9191L25.1472 92.4412C83.4989 78.432 143.516 71.3266 203.529 71.3266C263.539 71.3266 323.556 78.4283 381.911 92.4412L383.905 92.9191L383.397 94.9055C378.831 112.69 368.447 128.2 354.154 138.58C342.546 146.999 329.298 151.435 316.092 151.435ZM28.1043 95.88C37.5956 129.122 68.3584 151.379 98.9904 146.801C168.349 136.272 238.694 136.272 308.057 146.801C338.689 151.372 369.451 129.115 378.939 95.8763C264.132 68.6532 142.915 68.6532 28.1043 95.88Z" fill="#F4B331"/>
<path d="M96.3344 122.308C96.7011 122.308 96.7011 122.675 97.0679 123.042C97.0679 123.408 97.4347 123.775 97.4347 124.142C97.4347 124.509 97.4347 124.876 97.4347 125.242C97.4347 125.609 97.4347 125.976 97.4347 126.343C97.4347 126.71 97.4347 127.076 97.4347 127.076C97.4347 127.443 97.4347 127.81 97.4347 127.81C97.4347 127.81 97.0679 128.177 97.0679 128.543C97.0679 128.91 95.9676 128.91 95.234 129.277C94.5004 129.644 93.4001 129.644 92.2997 129.644C89.7322 130.011 86.7979 130.011 83.8636 129.644C80.9293 129.277 78.3618 128.91 76.1611 128.177C74.694 127.443 73.9604 127.076 72.86 126.343C72.1265 125.609 71.3929 124.876 71.0261 123.775C70.6593 123.042 70.2925 122.308 69.9258 121.574C69.559 120.841 69.559 120.474 69.559 119.741C69.1922 113.872 68.8254 110.938 68.8254 110.938C67.725 110.938 66.6247 110.938 66.2579 110.571C66.2579 110.571 65.8911 109.837 65.8911 108.737C65.8911 107.27 65.8911 105.803 66.2579 103.969C68.0918 103.602 69.9258 103.602 71.7597 103.235C72.4933 103.235 73.9604 102.868 75.7943 102.501C77.6283 102.135 79.4622 101.768 80.9293 101.401C82.7633 101.401 83.8636 101.034 84.2304 101.034C84.964 101.034 85.6976 100.667 86.4311 100.301C87.1647 99.9339 88.2651 99.9339 88.6318 99.5671C88.9986 99.2003 89.3654 99.5671 90.099 99.5671C90.4658 99.5671 91.1994 99.5671 91.5661 99.9339C92.2997 100.301 92.6665 101.034 93.4001 101.768C93.7669 102.868 94.1336 103.602 94.1336 104.335L94.5004 105.436C94.1336 106.169 93.0333 106.903 91.9329 107.636C89.7322 108.37 88.2651 108.737 87.8983 108.37L87.5315 108.003C87.5315 107.636 87.1647 107.636 86.7979 107.27C86.7979 107.27 86.4311 107.27 86.0643 107.27C85.6976 107.27 85.3308 107.636 84.2304 107.636C83.4968 108.003 82.3965 108.003 80.5626 108.37C79.0954 108.737 77.9951 109.104 76.8947 109.104C76.8947 112.038 77.2615 114.972 77.6283 117.54C77.6283 119.007 77.9951 119.741 78.7286 120.107C79.0954 120.841 80.1958 121.574 81.2961 121.941C84.5972 122.675 87.5315 123.042 90.4658 122.675C90.8326 122.675 91.5661 122.308 92.2997 122.308C93.4001 121.941 94.1336 121.941 94.8672 121.941C95.234 121.941 95.9676 121.941 96.3344 122.308ZM94.5004 127.81C94.8672 127.81 95.234 127.443 95.234 127.443C95.234 127.076 94.8672 127.076 94.5004 127.443C93.7669 127.81 93.0333 127.81 91.9329 127.81C90.8326 127.81 90.099 128.177 88.9986 128.177L87.8983 128.543C90.8326 128.543 93.0333 128.177 94.5004 127.81ZM93.0333 103.235C92.6665 102.868 92.2997 102.135 91.9329 101.768C91.5661 101.034 91.1994 100.667 90.8326 100.301C91.5661 101.401 92.2997 102.501 92.2997 103.235C92.2997 103.602 92.6665 103.969 92.6665 103.969C93.0333 103.969 93.0333 103.602 93.0333 103.235Z" fill="#F4B331"/>
<path d="M129.349 105.069C129.715 105.436 130.082 106.169 130.449 106.903C130.816 107.636 130.816 108.37 130.816 109.47C130.816 110.571 130.082 111.304 129.349 112.405C128.248 113.505 127.148 114.605 125.681 115.339L126.047 121.941C126.047 122.308 126.047 122.308 126.047 123.042C126.047 123.408 125.681 124.142 125.314 124.509C124.947 124.876 124.947 125.242 124.214 125.609C123.48 125.976 122.746 126.343 121.646 126.71L108.442 127.81C107.341 127.81 105.874 127.81 105.141 127.443C104.04 127.076 103.307 126.71 102.573 126.343C101.84 125.609 101.106 124.876 100.739 124.142C100.372 123.408 100.006 122.675 99.6389 121.941C99.2721 121.208 99.2721 120.474 99.2721 120.107L98.9053 117.54C97.8049 117.54 97.4382 117.173 97.0714 116.439C97.0714 114.239 96.7046 112.038 96.7046 110.571C96.7046 110.571 96.7046 110.204 97.0714 110.204L97.4382 109.837C97.805 109.47 97.8049 109.47 98.1717 109.47L97.8049 103.602C97.8049 103.235 97.8049 102.501 98.1717 102.135C98.5385 101.768 99.2721 100.667 100.006 99.9338C100.739 99.2003 101.84 98.8335 102.94 98.4667L116.144 97.3663C117.245 97.3663 118.712 97.3663 119.445 97.7331C120.179 98.0999 121.279 98.4667 122.013 98.8335C122.746 99.2003 123.113 99.9338 123.847 100.667C124.58 101.401 124.58 102.501 124.58 103.235C124.947 103.969 124.947 104.702 124.947 105.436V106.536C125.314 106.536 125.314 106.169 125.314 106.169C127.515 104.702 128.615 104.335 129.349 105.069ZM98.1717 110.204C98.1717 110.571 98.1717 110.571 98.1717 110.571H98.5385L98.1717 110.204ZM102.206 123.408C102.573 124.142 102.94 124.509 103.674 125.242C104.407 125.609 105.141 125.976 106.241 125.976C106.241 125.976 106.241 125.976 105.874 125.976H105.507C105.141 125.976 105.141 125.609 104.774 125.609C104.407 125.242 104.407 125.242 104.04 124.876C103.674 124.509 103.307 124.142 103.307 123.408C102.573 122.675 102.573 122.308 102.206 122.675C102.206 122.675 102.206 123.042 102.206 123.408ZM105.141 106.903C105.141 106.903 105.141 107.27 105.141 107.636C105.141 108.003 105.141 108.37 105.141 108.737C111.743 108.37 116.144 108.003 117.978 108.003V107.636C117.978 106.536 117.611 105.802 116.878 105.069C116.144 104.335 115.044 103.969 113.577 103.969L107.341 104.335C106.608 104.335 105.874 104.702 105.507 105.436C105.507 106.169 105.141 106.536 105.141 106.903ZM116.878 120.841C117.611 120.841 117.978 120.474 118.345 120.107C118.712 119.74 119.079 119.374 119.079 119.007C119.079 118.64 119.079 118.64 119.079 118.273V116.439C116.511 116.806 112.11 116.806 106.241 117.173V117.54C106.241 118.64 106.608 119.374 107.341 120.107C108.075 120.841 109.175 121.208 110.642 121.208L116.878 120.841ZM117.611 102.868C117.245 102.501 117.245 102.501 116.878 102.868C116.878 102.868 116.878 103.235 117.245 103.235C117.611 103.602 117.978 103.969 118.345 104.335C118.712 104.702 119.079 105.069 119.079 105.436V105.802C119.079 104.702 118.345 103.602 117.611 102.868ZM127.515 112.038C127.515 111.671 127.881 111.671 127.881 111.304C127.881 110.938 127.881 110.938 127.515 110.938C127.515 110.938 127.148 110.938 126.781 111.304C126.414 111.671 126.047 112.038 125.681 112.405V113.138C126.414 113.138 127.148 112.771 127.515 112.038Z" fill="#F4B331"/>
<path d="M165.654 98.0999L166.02 98.4667C166.02 98.8335 166.02 98.8335 166.02 99.2003C166.02 99.5671 165.654 99.9339 165.654 100.301C165.287 100.667 164.92 101.034 164.186 101.401L164.92 102.868C166.02 108.737 166.387 114.605 164.92 120.107C164.92 120.841 164.553 121.941 164.186 122.308C163.82 123.042 163.086 123.408 162.719 123.775C161.986 124.142 161.619 124.142 161.252 124.142C160.885 124.142 160.519 124.142 160.152 124.142C159.785 124.142 159.785 124.142 159.418 124.142C159.051 124.142 158.685 124.142 158.318 123.775C157.951 123.775 157.584 123.408 157.217 123.408C156.851 123.408 156.484 123.042 156.484 122.675C156.117 122.308 156.117 121.941 156.117 121.575C156.117 121.208 156.117 120.474 156.484 119.741C157.951 116.806 158.318 112.405 157.217 107.27C157.217 106.536 156.851 106.169 156.484 106.169C156.484 106.169 156.117 105.803 155.75 106.169C155.384 106.536 155.017 106.169 154.65 106.536C153.916 106.169 153.916 106.536 153.916 107.27C154.283 110.571 154.283 113.138 154.283 115.339C154.283 116.806 153.916 117.907 152.816 118.64C152.816 118.64 152.449 119.007 152.082 119.007C151.716 119.007 151.349 119.374 150.615 119.374C149.882 119.374 149.515 119.374 148.781 119.374C148.048 119.374 147.681 119.007 147.314 119.007C146.581 118.64 146.214 118.273 146.214 117.54C145.847 116.806 145.847 116.073 146.214 114.972C146.581 112.772 146.581 110.204 146.214 107.636C146.214 107.27 146.214 107.27 145.847 106.903C145.48 106.903 145.48 106.903 145.114 106.903C144.747 106.903 144.38 107.27 144.38 107.636C144.38 113.138 143.646 117.907 141.812 121.941C141.446 122.675 141.079 123.408 140.345 124.142C139.612 124.876 139.245 125.242 138.878 125.242C138.511 125.242 137.778 125.609 137.411 125.609C137.044 125.609 136.677 125.609 136.311 125.609C135.944 125.609 135.577 125.609 135.21 125.242C134.844 125.242 134.477 124.876 134.11 124.509C133.743 124.142 133.376 123.775 133.01 123.408C132.643 123.042 132.643 122.675 132.643 121.941C132.643 121.208 133.01 120.841 133.376 120.107C135.21 117.173 136.311 113.138 136.311 108.003C136.311 106.903 136.311 105.803 135.944 104.702C135.944 104.702 135.944 104.702 135.577 104.702C135.21 104.702 135.21 104.702 135.21 104.702C135.21 104.702 135.21 104.702 134.844 104.702C134.844 104.702 134.477 104.702 134.477 104.335C134.11 104.335 134.11 103.969 133.743 103.969C133.376 103.969 133.376 103.602 133.376 103.235C133.376 102.868 133.376 102.501 133.376 102.135C133.743 99.9339 134.477 98.4667 135.577 97.7331C135.944 97.7331 135.944 97.3664 136.311 97.3664C136.677 97.3664 136.677 97.3664 137.044 96.9996C137.411 96.6328 137.411 96.9996 137.778 96.9996C138.145 96.9996 138.511 96.9996 138.511 96.9996C138.511 96.9996 138.878 96.9996 139.245 96.9996C139.612 96.9996 139.979 96.9996 139.979 96.9996C141.446 96.9996 142.913 96.9996 144.38 96.9996L144.013 95.1656C146.581 94.0652 148.415 93.6985 149.882 93.6985C150.249 93.6985 150.615 93.6985 150.982 94.0652C151.349 94.432 151.716 94.7988 151.716 95.1656V95.8992C154.283 95.5324 156.484 94.7988 158.685 93.6985C158.685 93.6985 159.051 93.3317 159.418 93.3317C159.785 93.3317 160.152 92.9649 160.519 92.9649C161.252 92.9649 161.619 92.9649 161.986 93.3317C162.352 93.6985 162.719 93.6985 163.086 94.432C163.453 95.1656 163.82 95.1656 164.186 95.5324C164.553 95.8992 164.92 96.266 165.287 96.6328C165.287 97.7331 165.654 98.0999 165.654 98.0999ZM135.944 99.2003C135.944 98.8335 136.311 98.8335 136.311 98.8335L136.677 98.4667C136.311 98.4667 135.944 98.8335 135.577 98.8335C135.21 99.2003 135.21 99.2003 135.21 99.2003V99.5671C135.577 99.5671 135.577 99.2003 135.944 99.2003ZM138.145 123.408C139.245 122.675 139.979 121.208 140.712 119.374C140.712 119.741 140.345 120.107 139.612 121.208C138.878 121.941 138.145 122.675 137.778 123.042C137.411 123.408 137.411 123.408 137.778 123.408H138.145ZM146.947 114.605C146.947 115.339 146.947 115.339 146.947 115.706C146.947 116.073 146.947 116.073 147.314 116.439C147.681 116.806 147.681 117.173 148.048 117.173C148.048 117.907 148.415 118.273 149.148 118.273C149.148 118.273 148.781 118.273 148.781 117.907C148.415 117.907 148.415 117.173 148.048 116.806C147.681 116.073 147.681 115.339 147.681 114.605C147.681 114.239 147.681 114.239 147.314 114.239C146.947 114.239 146.947 114.605 146.947 114.605ZM163.82 107.636C163.82 106.169 163.453 104.702 162.719 103.235C162.719 103.602 162.719 103.602 162.719 103.969C162.719 104.335 162.719 105.069 163.086 105.803C163.086 106.536 163.086 107.27 163.086 107.636V108.003C163.453 108.003 163.453 108.003 163.82 107.636Z" fill="#F4B331"/>
<path d="M189.867 92.9648C191.334 93.3316 192.068 94.0652 192.801 95.5324C193.535 96.9995 193.535 98.4667 193.535 100.301C193.535 102.135 192.801 103.602 192.068 105.069C189.134 109.47 184.365 112.405 178.13 114.239C177.763 116.439 177.396 118.273 176.663 119.741C176.296 121.208 175.563 122.308 175.196 123.042C174.829 123.408 174.829 123.408 174.462 123.775C174.095 123.775 173.729 123.775 173.362 123.775C172.628 123.408 171.528 123.408 170.428 122.675C169.327 122.308 168.594 121.574 168.594 121.208C168.594 120.841 168.594 120.841 168.594 120.474C168.594 120.107 168.594 120.107 168.594 119.741C168.594 119.374 168.594 119.374 168.96 118.64C168.96 118.273 169.327 117.907 169.327 117.54C171.161 110.571 171.161 105.069 170.061 101.034C170.061 100.667 169.694 99.9339 169.327 99.2003C168.96 98.4667 168.594 97.7331 168.594 96.9995C168.227 96.266 168.227 95.8992 168.227 95.8992C168.227 95.1656 168.96 94.432 170.061 94.0652C171.161 93.6984 172.628 93.3316 173.729 92.9648H175.563C175.929 93.3316 176.296 94.432 177.03 95.8992C177.396 95.5324 178.13 95.5324 178.497 95.1656C178.864 94.7988 179.597 94.7988 180.698 94.432C181.431 94.0652 182.531 94.0652 183.265 93.6984C183.999 93.3316 185.099 93.3316 185.833 93.3316C186.199 92.9648 186.933 92.5981 188.033 92.5981C188.767 92.5981 189.5 92.9648 189.867 92.9648ZM169.327 96.266H169.694C169.694 96.266 169.694 95.8992 169.694 95.5324C169.694 95.1656 169.694 95.1656 169.694 94.7988C169.694 94.432 169.694 94.432 169.694 94.432C169.327 95.1656 169.327 95.5324 169.327 96.266ZM170.794 119.741C170.794 119.374 170.794 119.374 170.794 119.007C170.794 118.64 170.794 118.64 170.794 117.907C170.794 117.54 170.794 117.173 171.161 116.439C170.794 117.173 170.794 117.907 170.428 119.374C170.428 119.741 170.428 120.107 170.794 120.107C170.428 120.107 170.428 120.107 170.794 119.741ZM185.099 103.602C185.833 102.868 185.833 102.135 185.833 101.401C185.833 100.667 185.833 100.301 185.466 100.301C185.099 99.9339 184.732 99.9339 183.999 100.301C183.632 100.301 182.898 100.667 181.798 101.034C180.698 101.401 179.964 101.768 179.23 102.135L178.13 102.501C178.13 102.868 178.13 102.868 178.13 103.602C178.13 103.969 178.13 104.702 178.497 105.802C178.497 106.903 178.497 107.636 178.497 108.003C178.864 108.003 179.23 107.636 179.964 107.27C180.698 106.903 181.431 106.536 182.531 105.802C183.632 105.069 184.365 104.335 185.099 103.602ZM191.701 97.3663C191.701 97.7331 191.701 97.7331 192.068 97.7331C192.435 97.7331 192.435 97.3663 192.435 96.9995C192.435 95.8992 191.701 94.7988 190.601 93.6984C190.968 95.1656 191.334 96.266 191.701 97.3663Z" fill="#F4B331"/>
<path d="M220.303 113.505C220.67 113.872 220.67 114.239 220.67 114.605C220.67 114.972 220.67 115.339 220.303 115.339H219.937C214.802 119.741 208.933 121.575 202.331 121.575C201.964 122.308 201.597 122.675 201.597 122.675C200.864 123.042 200.13 123.042 198.296 122.675C196.829 122.308 195.729 122.308 194.995 121.941C194.628 121.941 194.261 121.575 194.261 120.474L193.161 120.107C193.161 120.107 193.161 120.107 193.161 119.741C193.161 119.374 193.161 119.374 193.161 119.007C193.161 118.273 193.528 117.173 193.895 116.073C193.895 114.972 194.261 114.605 194.628 114.605C194.628 114.605 194.995 114.605 195.729 114.605C196.095 111.671 196.462 108.37 196.462 105.803C196.462 103.235 196.095 100.667 196.095 98.8335L195.729 95.8992C195.729 95.1656 196.095 94.432 196.829 94.0652C197.563 93.6985 198.663 92.9649 199.763 92.9649C200.497 92.9649 200.864 92.9649 201.597 92.9649C201.964 92.9649 202.331 92.9649 202.698 93.3317C203.064 93.6985 203.431 93.6985 203.431 93.6985C203.431 94.0652 203.798 94.0652 203.798 94.0652V94.432C205.265 102.135 205.265 109.104 204.531 115.339C206.365 114.972 208.199 114.605 210.4 113.872C212.601 113.138 213.701 112.405 214.435 112.038C215.168 111.671 215.902 111.304 216.269 110.938C216.269 110.938 216.635 110.938 217.002 110.938C217.369 110.938 217.736 110.938 218.103 111.304C218.469 111.671 218.836 112.038 219.203 112.405C219.57 112.772 219.937 113.138 220.303 113.505ZM203.064 97.3664C203.064 96.6328 203.064 95.5324 202.698 94.432C202.698 94.0652 202.331 94.0652 202.331 94.0652C201.964 94.0652 201.964 94.432 202.331 94.7988C202.698 95.1656 202.698 95.5324 202.698 95.8992C202.698 96.266 203.064 96.6328 203.064 96.9996V97.3664ZM218.103 116.073C218.469 115.706 218.469 115.706 218.469 115.339C218.103 114.972 218.103 115.339 217.736 115.706C217.369 116.073 217.002 116.439 215.902 117.173C215.168 117.907 214.435 118.273 213.701 118.64L212.601 119.007C214.802 118.273 216.635 117.173 218.103 116.073Z" fill="#F4B331"/>
<path d="M248.919 95.8991C248.919 96.6327 249.286 96.9995 249.286 97.7331C249.286 98.4667 249.286 98.8335 249.286 99.2003V99.9338C248.186 101.034 245.985 101.768 242.684 102.135C239.383 102.501 235.348 102.501 230.947 102.135C230.947 102.501 230.947 102.868 230.947 102.868C230.947 103.602 230.947 104.335 230.58 106.169C231.313 106.536 232.781 106.536 234.614 106.536C239.016 106.536 242.317 106.169 244.151 105.436C244.884 105.069 245.251 105.436 245.618 105.802C245.618 106.536 245.985 107.27 245.985 108.37C245.985 110.204 245.251 111.304 243.417 111.671C241.95 112.038 240.116 112.038 237.549 112.405C234.981 112.405 232.414 112.405 230.58 112.405C230.58 114.239 231.313 115.706 232.414 116.439C232.781 116.806 233.514 117.173 234.614 117.173C235.348 117.173 236.082 117.54 236.815 117.54C237.549 117.54 238.282 117.54 239.383 117.54C240.483 117.54 241.217 117.54 241.217 117.54C241.583 117.54 242.684 117.54 244.518 117.173C245.985 116.806 247.085 116.806 247.452 116.806C248.552 117.173 248.919 117.907 248.919 119.374C248.919 120.107 248.919 120.474 248.919 121.208C248.919 121.941 248.919 122.308 248.919 122.308V122.675C246.718 123.408 243.784 124.142 239.749 124.142C235.715 124.142 232.781 123.775 230.58 123.042C226.545 121.941 224.344 119.374 223.244 116.073C222.877 115.339 222.877 113.872 222.877 111.671L221.41 110.938C221.41 108.737 221.41 107.27 221.41 105.802C221.41 105.436 221.41 105.069 221.41 105.069C221.41 105.069 221.777 105.069 222.144 105.069C222.511 105.069 222.877 105.069 222.877 105.069C222.877 104.335 223.244 102.868 223.244 101.401C222.144 101.034 221.777 101.034 221.777 101.034C221.777 100.667 221.777 99.9338 222.144 98.0999C222.144 97.3663 222.511 96.6327 222.511 95.8991C222.511 95.1656 222.877 95.1656 222.877 95.1656C222.877 95.1656 223.244 95.1656 223.611 95.1656C223.978 95.1656 224.344 95.1656 224.344 95.1656C224.344 94.432 224.711 93.6984 225.078 93.6984C225.445 93.3316 226.178 93.3316 226.912 93.6984C227.279 93.6984 228.012 94.0652 228.379 94.0652C228.746 94.0652 229.479 94.0652 230.213 94.432C230.947 94.432 231.313 94.432 231.68 94.432C232.414 94.432 232.781 95.1656 232.414 96.6327C238.282 96.6327 242.684 96.2659 245.618 95.1656C246.352 94.7988 246.718 94.7988 247.085 94.7988C247.452 94.7988 247.819 94.7988 248.186 95.1656C248.552 95.1656 248.552 95.5324 248.919 95.5324C248.552 95.5324 248.919 95.8991 248.919 95.8991ZM223.978 115.706C223.978 115.339 223.978 114.605 223.978 113.505C223.978 113.138 223.978 113.138 223.611 113.138C223.611 113.138 223.244 113.138 223.244 113.505C223.244 114.239 223.611 114.972 223.978 115.706ZM245.985 121.574C245.251 121.574 244.518 121.941 243.417 121.941C242.317 122.308 241.583 122.308 240.85 122.308H239.749C240.85 122.308 241.95 122.308 243.051 122.308C244.151 122.308 245.251 121.941 245.985 121.574C246.352 121.574 246.718 121.208 246.352 120.841C246.718 121.208 246.352 121.208 245.985 121.574ZM244.151 110.571C244.151 110.571 244.151 110.938 243.784 110.938L243.417 111.304C244.151 110.938 244.518 110.938 244.884 110.571C244.884 110.204 244.884 110.204 244.884 110.204C244.518 110.204 244.151 110.204 244.151 110.571ZM248.186 99.2003C248.186 98.4667 248.186 97.3663 247.819 96.2659C247.819 95.8991 247.452 95.8991 247.452 95.8991C247.085 95.8991 247.085 96.2659 247.452 96.6327C247.819 96.9995 247.819 97.3663 247.819 97.7331C247.819 98.0999 248.186 98.4667 248.186 98.8335V99.2003Z" fill="#F4B331"/>
<path d="M280.458 95.5323C281.191 95.8991 281.558 96.6327 281.558 98.0999C281.558 99.567 281.558 100.301 281.191 101.034C280.824 101.768 280.091 102.135 279.357 102.501C278.624 102.868 278.257 103.235 277.89 103.235H277.156C274.589 103.602 272.388 103.969 270.187 103.969C269.821 110.571 269.821 114.605 269.821 115.706C269.821 116.439 269.821 117.54 270.187 118.273C270.921 119.74 271.288 120.474 271.288 120.841L272.021 121.574C272.021 122.308 271.288 123.042 269.821 123.775C269.454 123.775 269.454 124.142 269.087 124.142C268.72 124.142 268.354 124.509 267.987 124.509C267.253 124.509 266.886 124.509 266.153 124.142C265.419 123.775 264.686 123.408 263.952 123.042C261.751 121.574 261.018 118.273 261.018 113.505V113.138L261.385 103.969C259.917 103.969 258.817 103.602 257.717 103.602C256.616 103.235 255.883 103.235 255.149 102.868L254.416 102.501H254.049C254.049 102.501 253.682 102.135 253.315 102.135C252.949 102.135 252.582 101.768 252.215 101.401C251.848 101.034 251.481 101.034 251.115 100.667C250.748 100.301 250.381 99.9338 250.381 99.567C250.014 98.8335 250.014 97.7331 250.381 96.2659C250.748 94.7988 251.115 94.0652 252.215 94.0652C252.582 94.0652 253.315 94.0652 253.682 94.0652C254.049 94.0652 254.782 94.432 255.149 94.7988C255.516 95.1656 256.25 95.5323 256.25 95.5323C257.717 95.8991 261.385 96.2659 266.52 96.6327C271.655 96.9995 275.323 96.6327 276.79 96.2659C277.156 96.2659 277.156 95.8991 277.523 95.8991C278.257 95.5323 278.624 95.5323 278.624 95.5323C278.99 95.5323 278.99 95.5323 279.357 95.1656C280.091 95.1656 280.458 95.1656 280.458 95.5323ZM251.848 95.8991C251.848 95.5323 251.848 95.5323 252.215 95.1656C252.582 94.7988 252.582 94.7988 252.582 94.7988C252.215 95.1656 251.848 95.1656 251.848 95.5323C251.848 95.8991 251.481 95.8991 251.481 96.2659C251.481 96.2659 251.481 96.6327 251.848 96.6327C251.848 96.2659 251.848 96.2659 251.848 95.8991ZM263.219 120.107C263.219 120.474 263.219 120.474 263.219 120.107C263.585 120.474 263.585 120.841 263.585 120.841C263.585 120.841 263.585 120.841 263.952 121.208L264.319 121.574C264.319 121.574 264.319 121.574 264.686 121.941L265.052 122.308C265.052 122.308 265.419 122.308 265.419 122.675H265.786C265.786 122.675 266.153 122.675 266.52 122.675C266.886 122.675 266.886 122.675 267.253 122.675C267.253 122.675 267.253 122.675 266.886 122.675C266.886 122.675 266.52 122.675 266.153 122.675C265.786 122.675 265.419 122.308 265.419 122.308C265.419 122.308 265.052 121.941 264.686 121.574C264.319 120.841 263.952 120.474 263.952 120.107C263.952 119.74 263.585 119.74 263.585 120.107C263.219 119.74 263.219 120.107 263.219 120.107ZM280.091 100.667C280.458 100.301 280.458 100.301 280.091 99.9338C280.091 99.9338 279.724 99.9338 279.357 100.301C278.99 100.667 278.624 101.034 278.257 101.401C277.89 101.768 277.156 101.768 277.156 102.135H276.79C278.257 101.768 279.357 101.401 280.091 100.667Z" fill="#F4B331"/>
<path d="M310.171 99.2003C310.171 99.5671 310.538 100.301 310.538 100.667C310.538 101.401 310.538 101.768 310.538 102.135V102.868C309.437 103.969 307.236 104.702 303.935 105.069C300.634 105.436 296.6 105.069 292.565 104.702C292.565 105.069 292.565 105.436 292.565 105.436C292.565 106.169 292.198 106.903 292.198 108.737C292.932 109.104 294.399 109.104 296.233 109.47C300.634 109.837 303.935 109.47 305.769 109.104C306.503 108.737 306.87 109.104 307.236 109.47C307.603 109.837 307.603 110.938 307.603 112.038C307.603 113.872 306.503 114.972 305.036 115.339C303.569 115.706 301.735 115.706 299.167 115.706C296.6 115.706 294.032 115.339 292.198 115.339C292.198 117.173 292.565 118.64 294.032 119.374C294.399 119.741 295.133 120.107 295.866 120.107C296.6 120.474 297.333 120.474 298.067 120.474C298.8 120.474 299.534 120.474 300.634 120.474C301.735 120.474 302.468 120.474 302.468 120.474C302.835 120.474 303.935 120.474 305.769 120.107C307.236 120.107 308.337 119.741 308.704 120.107C309.804 120.474 310.171 121.208 310.171 122.675C310.171 123.408 310.171 123.775 310.171 124.509C310.171 125.242 310.171 125.609 310.171 125.609H307.97C305.769 126.343 302.835 126.71 298.8 126.343C294.766 125.976 291.831 125.609 289.631 124.876C285.596 123.408 283.395 121.208 282.662 117.54C282.662 116.806 282.295 114.972 282.662 113.138L281.928 112.772C281.928 110.571 281.928 109.104 282.295 107.636C282.295 107.27 282.295 106.903 282.295 106.903C282.295 106.903 282.662 106.903 283.029 106.903C283.395 106.903 283.762 106.903 283.762 107.27C283.762 106.536 284.129 105.069 284.129 103.602C283.029 103.235 282.662 102.868 282.662 102.868C282.662 102.501 282.662 101.768 283.029 99.9339C283.029 99.2003 283.395 98.4667 283.395 97.7331C283.395 96.9995 283.762 96.9995 283.762 96.9995C283.762 96.9995 284.129 96.9995 284.496 96.9995C284.862 96.9995 285.229 96.9995 285.229 96.9995C285.229 96.266 285.596 95.5324 285.963 95.5324C286.33 95.1656 287.063 95.1656 287.797 95.5324C288.164 95.5324 288.897 95.8992 289.264 95.8992C289.631 95.8992 290.364 96.266 291.098 96.266C291.831 96.266 292.198 96.266 292.565 96.6328C293.299 96.6328 293.665 97.3663 293.299 98.8335C299.167 99.5671 303.569 99.2003 306.503 98.4667C307.236 98.0999 307.603 98.0999 307.97 98.0999C308.337 98.0999 308.704 98.0999 309.07 98.4667C309.437 98.8335 309.437 98.8335 309.437 98.8335C309.437 98.8335 310.171 98.8335 310.171 99.2003ZM284.129 117.54C284.129 117.173 284.129 116.439 284.496 115.339C284.496 114.972 284.496 114.972 284.129 114.972C284.129 114.972 283.762 114.972 283.762 115.339C283.762 116.073 283.762 116.806 284.129 117.54ZM305.769 124.509C305.036 124.876 304.302 124.876 303.202 125.242C302.101 125.242 301.368 125.609 300.634 125.609H299.534C300.634 125.609 301.735 125.609 302.835 125.609C303.935 125.609 305.036 125.242 305.769 125.242C306.136 125.242 306.503 124.876 306.136 124.876C306.503 124.142 306.136 124.142 305.769 124.509ZM304.669 113.505L304.302 113.872L303.935 114.239C304.669 113.872 305.036 113.872 305.403 113.505C305.403 113.138 305.403 113.138 305.403 113.138C305.036 113.138 304.669 113.138 304.669 113.505ZM309.437 102.135C309.804 101.401 309.437 100.301 309.07 99.2003C309.07 98.8335 308.704 98.8335 308.704 98.8335C308.337 98.8335 308.337 99.2003 308.704 99.5671C308.704 99.9339 309.07 100.301 309.07 100.667C309.07 101.034 309.437 101.401 309.437 101.768V102.135Z" fill="#F4B331"/>
<path d="M338.047 101.768C338.414 101.768 338.781 102.135 339.148 102.501C339.514 102.868 339.881 103.235 340.248 103.602C340.615 103.969 340.981 104.702 341.348 105.436C341.715 106.169 341.715 106.903 341.715 108.003C341.715 109.837 341.348 112.405 340.615 115.339C339.881 118.273 339.514 120.107 339.514 121.208C339.148 122.308 338.047 123.775 336.947 125.242C335.48 126.71 334.379 127.81 333.646 128.177C332.912 128.543 332.179 128.543 330.711 128.91C329.244 128.91 327.777 129.277 325.943 128.91C324.109 128.91 322.642 128.543 321.542 127.81C321.542 127.443 321.542 127.443 321.542 127.076C321.542 126.71 321.542 126.343 321.909 125.609C321.909 124.876 322.275 124.142 322.642 123.775C323.009 123.408 323.376 123.042 324.109 123.042C324.843 123.042 325.576 122.675 326.31 122.675C327.044 122.675 327.777 122.675 328.511 122.308C329.244 121.941 329.978 121.574 330.345 121.208C331.445 119.74 332.545 117.173 332.912 114.605C333.279 113.505 333.279 112.405 333.279 111.304C333.279 110.204 333.279 109.47 332.912 109.104C332.545 108.737 332.179 108.37 331.812 108.37C331.445 108.37 330.345 107.636 328.878 107.27C327.41 107.27 325.576 107.27 322.642 107.27C322.642 109.837 322.275 112.038 321.909 114.239C320.808 120.474 319.341 124.509 317.507 126.343C317.14 126.71 316.407 127.076 315.673 127.443C314.573 127.443 313.106 127.443 312.005 126.71C311.272 126.343 310.538 125.976 310.171 125.609C309.805 125.242 309.805 124.876 309.805 124.509C309.805 124.142 309.805 123.775 310.171 123.408C310.905 122.308 311.272 121.574 311.639 121.208C312.005 120.841 312.372 120.107 312.739 119.007C313.106 117.907 313.473 116.806 313.839 115.339C314.573 112.771 314.94 110.204 314.94 108.003H314.573H314.206C314.206 108.003 314.206 108.003 313.839 107.636C313.839 105.436 313.473 103.235 313.106 101.401C313.106 101.034 313.106 100.667 313.473 100.667C313.839 100.667 314.206 100.667 314.206 100.301C314.206 99.9338 313.839 99.567 313.839 99.2003C313.839 98.8335 314.206 98.4667 314.94 98.0999C315.673 97.7331 316.774 97.3663 317.874 97.3663C318.974 97.3663 319.708 96.9995 320.441 96.9995C321.175 96.9995 321.909 97.3663 322.275 98.4667C322.275 98.4667 322.275 98.8335 322.642 99.567C323.376 99.567 324.476 99.567 326.31 99.567C327.777 99.567 329.978 99.567 332.545 99.9338C334.746 100.667 336.58 101.034 338.047 101.768ZM312.005 124.142C312.739 123.042 313.106 121.574 313.473 119.74C312.739 121.574 312.005 123.042 311.639 123.775V124.142C311.639 124.509 311.639 124.509 312.005 124.142C312.005 124.509 312.005 124.509 312.005 124.142ZM329.978 123.042C330.345 122.675 330.711 122.675 330.345 122.308C330.345 122.308 329.978 122.308 329.611 122.308C329.244 122.308 328.878 122.675 328.511 122.675C328.144 122.675 327.777 123.042 327.41 123.042H327.044C328.144 123.408 329.244 123.408 329.978 123.042ZM339.148 104.702C339.148 105.069 339.514 105.069 339.514 105.069C339.514 105.069 339.881 104.702 339.514 104.702C339.148 103.969 338.781 103.602 337.68 102.868C338.781 103.602 339.148 103.969 339.148 104.702Z" fill="#F4B331"/>
</svg>
