<svg width="50" height="50" viewBox="0 0 97 97" fill="none" xmlns="http://www.w3.org/2000/svg">
<path d="M77.5177 24.1572C75.6006 20.7876 73.2186 17.8827 70.4591 15.5879C67.6704 13.293 64.4171 11.492 60.757 10.301C57.0969 9.11002 53.0011 8.5 48.5858 8.5C41.8467 8.5 35.9499 9.86529 31.0698 12.5378C26.1316 15.2393 22.3553 19.2189 19.77 24.3896C18.2886 27.4978 17.2138 31.2161 16.5167 35.4572C15.8486 39.6692 15.5 44.4622 15.5 49.72C15.5 53.8159 15.8195 57.6794 16.4295 61.1943C17.0395 64.7382 18.0562 68.0207 19.4215 70.9837C22.0649 76.4158 26.0735 80.715 31.3312 83.7941C36.5599 86.8442 42.5438 88.4129 49.1377 88.4129C54.8602 88.4129 60.1179 87.2509 64.7946 84.9851C69.5004 82.6903 73.3929 79.4078 76.3558 75.1957C78.7087 71.768 80.3355 67.9045 81.2069 63.6924C82.0493 59.5675 82.4849 54.5712 82.4849 48.8486C82.4559 38.333 80.8002 29.996 77.5177 24.1572ZM57.5036 59.5966C55.4993 60.7004 52.6235 61.2814 48.9635 61.2814C45.4196 61.2814 42.631 60.7295 40.5976 59.6837C38.5933 58.6089 37.228 57.0984 36.3566 55.0069C35.4851 52.8283 35.0203 49.9815 35.0203 46.5537C35.0203 41.5283 36.037 37.781 38.0704 35.4281C40.0166 33.1623 43.6476 32.0294 48.8182 32.0294C52.4782 32.0294 55.354 32.5523 57.3874 33.598C59.3917 34.6147 60.757 36.0962 61.5994 38.1296C62.4709 40.2502 62.9356 43.0098 62.9356 46.3504C62.9356 49.8943 62.4999 52.7702 61.6575 54.9488C60.8441 56.9532 59.4789 58.4927 57.5036 59.5966Z" fill="#8A52A1" stroke="#221F1F" stroke-width="0.847051" stroke-miterlimit="10" stroke-linecap="round" stroke-linejoin="round"/>
<path opacity="0.5" d="M46.4066 27.5559C43.066 28.224 39.4931 29.7345 37.663 32.8137C37.1402 33.7142 36.2978 36.3866 36.1816 38.8848C36.6755 37.5195 37.3145 36.3286 38.1278 35.399C40.074 33.1332 43.7051 32.0003 48.8757 32.0003C52.5357 32.0003 55.4114 32.5232 57.4448 33.5689C59.4491 34.5856 60.8144 36.0671 61.6568 38.1005C62.5283 40.2211 62.993 42.9807 62.993 46.3213C62.993 49.8652 62.5573 52.741 61.7149 54.9197C61.1339 56.3721 60.2625 57.5631 59.1297 58.5508C65.956 54.4259 67.6698 39.6401 62.2087 33.3365C58.4325 28.9211 52.129 26.423 46.4066 27.5559Z" fill="#662D73"/>
<path opacity="0.5" d="M19.3614 71.0709C22.0047 76.503 26.0134 80.8022 31.2711 83.8814C36.4998 86.9315 42.4836 88.5001 49.0776 88.5001C54.8 88.5001 60.0578 87.3382 64.7345 85.0724C69.4403 82.7775 73.3328 79.4951 76.2957 75.283C78.6486 71.8553 80.2753 67.9918 81.1467 63.7797C81.9891 59.6548 82.4248 54.6585 82.4248 48.9359C82.4248 38.3622 80.7691 30.0252 77.4866 24.1864C75.5694 20.8168 73.1875 17.9119 70.4279 15.6171C67.6393 13.3222 64.3859 11.5212 60.7259 10.3302C57.0658 9.13919 52.97 8.52917 48.5547 8.52917C41.8155 8.52917 35.9188 9.89446 31.0387 12.5669C30.1672 13.0608 29.3829 13.6127 28.5696 14.1646C30.661 13.177 32.7816 12.4217 34.7568 11.8988C42.7451 9.86541 51.3724 9.83636 59.1573 12.7703C75.5404 18.9576 76.0633 40.4537 73.6233 54.9489C72.1418 63.7797 70.0213 71.5357 62.1783 76.7064C56.1072 80.7151 47.1313 82.1094 40.0145 81.1508C28.3953 79.5822 20.6394 71.0709 16.2822 60.8168C16.3113 60.962 16.3113 61.1072 16.3403 61.2234C17.0084 64.7964 18.0252 68.0789 19.3614 71.0709Z" fill="#662D73"/>
<path d="M42.7748 13.3802C24.0969 17.1856 16.2829 34.3824 18.6939 52.2473C18.8101 53.1479 20.0301 52.5378 20.1172 51.8988C21.192 43.5037 20.2334 34.7891 24.4744 27.0912C28.2507 20.2648 35.5418 15.9946 42.7457 13.7869C42.9781 13.7288 43.0653 13.3221 42.7748 13.3802Z" fill="white"/>
<path d="M20.5249 60.6133C20.4959 60.3518 20.4668 60.1194 20.4668 59.8871C20.3797 58.9285 20.6702 57.7375 20.1763 56.8951C19.8568 56.3431 19.1596 56.7498 18.9854 57.1855C18.5206 58.2313 18.7239 59.6256 18.8401 60.7585C18.9563 61.7462 19.0725 62.7048 19.7406 63.4891C20.2635 64.0991 21.3383 63.1986 21.193 62.5595C21.0478 61.8624 20.7573 61.2523 20.5249 60.6133Z" fill="white"/>
</svg>
