<svg width="60" height="60" viewBox="0 0 60 60" fill="none" xmlns="http://www.w3.org/2000/svg">
<rect x="2" y="2" width="56" height="56" rx="28" fill="#F4B331"/>
<rect x="2" y="2" width="56" height="56" rx="28" stroke="white" stroke-width="4"/>
<path d="M39.4816 42.2751C38.9365 42.2751 38.3876 42.0884 37.9396 41.7038C36.9427 40.8525 36.8269 39.3552 37.6782 38.3583C39.3883 36.3607 40.333 33.8068 40.333 31.1708C40.333 25.0735 35.3707 20.115 29.2772 20.115C23.1799 20.115 18.2214 25.0772 18.2214 31.1708C18.2214 32.4813 17.161 33.5418 15.8505 33.5418C14.5399 33.5418 13.4795 32.4813 13.4795 31.1708C13.4795 22.4598 20.5662 15.3694 29.2809 15.3694C37.9918 15.3694 45.0823 22.4561 45.0823 31.1708C45.0823 34.9344 43.7344 38.5823 41.2888 41.4424C40.8146 41.9913 40.15 42.2751 39.4816 42.2751Z" fill="white"/>
<path d="M37.3531 31.2492L29.2769 44.6012L44.8804 44.9261L37.3531 31.2492Z" fill="white"/>
</svg>
