<svg width="256" height="108" viewBox="0 0 256 108" fill="none" xmlns="http://www.w3.org/2000/svg">
<path d="M88.581 43.8351L107.852 39.9685C109.091 39.72 110.168 38.9598 110.816 37.8754L118.619 24.8297L123.595 16.5104C125.334 13.6028 129.546 13.6028 131.285 16.5104L144.064 37.8754C144.712 38.9598 145.789 39.72 147.028 39.9685L166.299 43.8351C169.803 44.5382 171.114 48.86 168.591 51.3913L152.651 67.3814C151.596 68.4399 151.138 69.9549 151.431 71.4206L155.051 89.5803C155.78 93.2382 151.982 96.1336 148.648 94.4613L129.449 84.8313C128.185 84.1972 126.695 84.1972 125.431 84.8313L106.232 94.4613C102.898 96.1336 99.0998 93.2382 99.8291 89.5803L103.45 71.4206C103.742 69.9549 103.284 68.4399 102.229 67.3814L86.2892 51.3913C83.7659 48.86 85.0767 44.5382 88.581 43.8351Z" fill="#F7B307"/>
<path fill-rule="evenodd" clip-rule="evenodd" d="M88.1398 41.6385L107.411 37.772C108.031 37.6477 108.569 37.2677 108.893 36.7254L121.672 15.3604C124.28 10.999 130.599 10.999 133.207 15.3604L145.986 36.7254C146.31 37.2677 146.848 37.6477 147.468 37.772L166.739 41.6385C171.996 42.6932 173.962 49.1759 170.177 52.9729L154.237 68.963C153.71 69.4922 153.481 70.2497 153.627 70.9826L157.248 89.1423C158.341 94.6291 152.644 98.9722 147.643 96.4638L128.444 86.8337C127.812 86.5167 127.067 86.5167 126.435 86.8337L107.236 96.4638C102.235 98.9722 96.5377 94.6291 97.6315 89.1423L101.252 70.9826C101.398 70.2497 101.169 69.4922 100.642 68.963L84.702 52.9729C80.9171 49.1759 82.8834 42.6932 88.1398 41.6385ZM107.852 39.9685L88.5805 43.835C85.0762 44.5381 83.7654 48.86 86.2887 51.3913L102.228 67.3814C103.283 68.4399 103.741 69.9549 103.449 71.4206L99.8286 89.5803C99.0993 93.2382 102.898 96.1336 106.232 94.4613L125.431 84.8313C126.695 84.1972 128.184 84.1972 129.448 84.8313L148.648 94.4613C151.982 96.1336 155.78 93.2382 155.05 89.5803L151.43 71.4206C151.138 69.9549 151.596 68.4399 152.651 67.3814L168.59 51.3913C171.114 48.8599 169.803 44.5381 166.299 43.835L147.027 39.9685C145.788 39.72 144.712 38.9598 144.063 37.8754L131.285 16.5104C129.546 13.6028 125.333 13.6028 123.594 16.5104L110.816 37.8754C110.167 38.9598 109.091 39.72 107.852 39.9685Z" fill="#5B3303"/>
<path fill-rule="evenodd" clip-rule="evenodd" d="M123.566 55.0647C124.086 55.3992 124.237 56.0923 123.902 56.6126L113.821 72.2946C113.487 72.8149 112.793 72.9656 112.273 72.6311C111.753 72.2965 111.602 71.6035 111.937 71.0831L122.018 55.4012C122.352 54.8808 123.045 54.7301 123.566 55.0647Z" fill="#FFC530"/>
<path d="M168.591 51.3915L155.012 65.0137C153.612 66.4183 151.455 66.7353 149.71 65.7929L127.44 53.7666L145.282 39.2048C145.797 39.5778 146.391 39.8409 147.028 39.9688L166.299 43.8353C169.804 44.5384 171.115 48.8602 168.591 51.3915Z" fill="#FFC01D"/>
<path fill-rule="evenodd" clip-rule="evenodd" d="M155.435 48.027C155.512 48.6409 155.077 49.2007 154.463 49.2774L136.541 51.5177C135.927 51.5944 135.367 51.159 135.29 50.5451C135.214 49.9313 135.649 49.3715 136.263 49.2947L154.185 47.0544C154.799 46.9777 155.359 47.4131 155.435 48.027Z" fill="#FFD363"/>
<path d="M125.43 84.8315L106.231 94.4616C104.606 95.2768 102.87 95.0065 101.603 94.0916L127.439 53.7666L169.9 48.166C169.922 49.3043 169.511 50.4673 168.59 51.3915L152.651 67.3816C151.595 68.4401 151.138 69.9551 151.43 71.4209L155.05 89.5806C155.779 93.2384 151.981 96.1338 148.647 94.4616L129.448 84.8315C128.184 84.1974 126.695 84.1974 125.43 84.8315Z" fill="#CF9500"/>
<path d="M151.431 71.4209L155.052 89.5806C155.425 91.4553 154.61 93.1297 153.277 94.0916L127.44 53.7666L152.652 67.3817C151.597 68.4402 151.139 69.9551 151.431 71.4209Z" fill="#B97D08"/>
<path d="M88.5802 43.8353L107.852 39.9688C109.091 39.7202 110.167 38.9601 110.816 37.8756L123.594 16.5106C124.463 15.0568 125.951 14.3299 127.439 14.3299V53.7666L85.1399 47.0458C85.5612 45.51 86.7819 44.1961 88.5802 43.8353Z" fill="#FFD056"/>
<path fill-rule="evenodd" clip-rule="evenodd" d="M125.222 20.1627C125.841 20.1749 126.332 20.6861 126.32 21.3046L125.76 49.8681C125.754 50.186 125.613 50.4862 125.372 50.6939C125.132 50.9017 124.814 50.9975 124.499 50.9573L93.6949 47.0369C93.0812 46.9587 92.647 46.3979 92.7251 45.7843C92.8033 45.1706 93.3641 44.7364 93.9777 44.8145L123.545 48.5776L124.08 21.2607C124.092 20.6422 124.604 20.1506 125.222 20.1627Z" fill="#FFE39A"/>
<path fill-rule="evenodd" clip-rule="evenodd" d="M116.248 48.7782C116.326 48.1645 116.887 47.7303 117.501 47.8084L124.782 48.7351C125.395 48.8132 125.829 49.374 125.751 49.9877C125.673 50.6014 125.112 51.0356 124.499 50.9575L117.218 50.0308C116.604 49.9527 116.17 49.3919 116.248 48.7782Z" fill="#FFFBF0"/>
<path d="M128.561 62.1677C128.561 63.0956 127.808 63.8479 126.88 63.8479C125.952 63.8479 125.2 63.0956 125.2 62.1677C125.2 61.2397 125.952 60.4875 126.88 60.4875C127.808 60.4875 128.561 61.2397 128.561 62.1677Z" fill="#BA8600"/>
<path d="M131.921 66.6482C131.921 66.9576 131.67 67.2083 131.361 67.2083C131.052 67.2083 130.801 66.9576 130.801 66.6482C130.801 66.3389 131.052 66.0882 131.361 66.0882C131.67 66.0882 131.921 66.3389 131.921 66.6482Z" fill="#BA8600"/>
<path d="M124.08 71.1288C124.08 71.4381 123.829 71.6888 123.52 71.6888C123.211 71.6888 122.96 71.4381 122.96 71.1288C122.96 70.8195 123.211 70.5687 123.52 70.5687C123.829 70.5687 124.08 70.8195 124.08 71.1288Z" fill="#BA8600"/>
<path d="M130.801 70.0086C130.801 70.318 130.55 70.5687 130.241 70.5687C129.931 70.5687 129.681 70.318 129.681 70.0086C129.681 69.6993 129.931 69.4486 130.241 69.4486C130.55 69.4486 130.801 69.6993 130.801 70.0086Z" fill="#BA8600"/>
<path d="M138.642 74.4892C138.642 74.7985 138.391 75.0493 138.082 75.0493C137.772 75.0493 137.522 74.7985 137.522 74.4892C137.522 74.1799 137.772 73.9291 138.082 73.9291C138.391 73.9291 138.642 74.1799 138.642 74.4892Z" fill="#BA8600"/>
<path d="M130.801 62.1677C130.801 62.477 130.55 62.7278 130.241 62.7278C129.931 62.7278 129.681 62.477 129.681 62.1677C129.681 61.8584 129.931 61.6076 130.241 61.6076C130.55 61.6076 130.801 61.8584 130.801 62.1677Z" fill="#BA8600"/>
<path d="M127.44 57.6871C127.44 57.9964 127.19 58.2472 126.88 58.2472C126.571 58.2472 126.32 57.9964 126.32 57.6871C126.32 57.3778 126.571 57.1271 126.88 57.1271C127.19 57.1271 127.44 57.3778 127.44 57.6871Z" fill="#BA8600"/>
<path d="M133.041 73.3691C133.041 73.6784 132.79 73.9291 132.481 73.9291C132.172 73.9291 131.921 73.6784 131.921 73.3691C131.921 73.0597 132.172 72.809 132.481 72.809C132.79 72.809 133.041 73.0597 133.041 73.3691Z" fill="#BA8600"/>
<path d="M129.681 66.0882C129.681 66.7068 129.179 67.2083 128.561 67.2083C127.942 67.2083 127.44 66.7068 127.44 66.0882C127.44 65.4695 127.942 64.968 128.561 64.968C129.179 64.968 129.681 65.4695 129.681 66.0882Z" fill="#BA8600"/>
<path d="M128.561 70.5687C128.561 71.1874 128.059 71.6889 127.44 71.6889C126.822 71.6889 126.32 71.1874 126.32 70.5687C126.32 69.9501 126.822 69.4486 127.44 69.4486C128.059 69.4486 128.561 69.9501 128.561 70.5687Z" fill="#BA8600"/>
<path d="M135.281 70.5687C135.281 71.1874 134.78 71.6889 134.161 71.6889C133.543 71.6889 133.041 71.1874 133.041 70.5687C133.041 69.9501 133.543 69.4486 134.161 69.4486C134.78 69.4486 135.281 69.9501 135.281 70.5687Z" fill="#BA8600"/>
<path d="M125.2 67.2083C125.2 67.8269 124.699 68.3284 124.08 68.3284C123.461 68.3284 122.96 67.8269 122.96 67.2083C122.96 66.5897 123.461 66.0882 124.08 66.0882C124.699 66.0882 125.2 66.5897 125.2 67.2083Z" fill="#BA8600"/>
<path d="M10.7397 63.3673L23.9889 60.7091C24.8406 60.5382 25.5806 60.0156 26.0265 59.27L31.3908 50.3012L34.8117 44.5816C36.0073 42.5826 38.9033 42.5826 40.0989 44.5816L48.8841 59.27C49.33 60.0156 50.07 60.5382 50.9218 60.7091L64.1709 63.3673C66.5801 63.8507 67.4813 66.8219 65.7465 68.5622L54.7881 79.5554C54.0627 80.2831 53.7479 81.3247 53.9488 82.3324L56.4378 94.8172C56.9392 97.332 54.3279 99.3226 52.0358 98.1729L38.8364 91.5522C37.9673 91.1163 36.9433 91.1163 36.0742 91.5522L22.8748 98.1729C20.5827 99.3226 17.9714 97.332 18.4728 94.8172L20.9618 82.3324C21.1627 81.3247 20.8479 80.2831 20.1225 79.5554L9.1641 68.5622C7.42934 66.8219 8.33054 63.8507 10.7397 63.3673Z" fill="#F7B307"/>
<path fill-rule="evenodd" clip-rule="evenodd" d="M10.4365 61.8572L23.6856 59.199C24.1115 59.1136 24.4815 58.8523 24.7045 58.4795L33.4896 43.791C35.283 40.7926 39.6271 40.7926 41.4205 43.7911L50.2057 58.4795C50.4286 58.8523 50.7986 59.1136 51.2245 59.199L64.4736 61.8572C68.0874 62.5823 69.4392 67.0392 66.8371 69.6496L55.8786 80.6428C55.5159 81.0067 55.3585 81.5274 55.459 82.0313L57.9481 94.5161C58.7001 98.2882 54.7832 101.274 51.345 99.5496L38.1456 92.929C37.711 92.711 37.1991 92.711 36.7645 92.929L23.5651 99.5496C20.1269 101.274 16.21 98.2882 16.9621 94.5161L19.4511 82.0313C19.5516 81.5274 19.3942 81.0067 19.0315 80.6428L8.07305 69.6496C5.47091 67.0392 6.82271 62.5823 10.4365 61.8572ZM23.9886 60.7091L10.7395 63.3673C8.33029 63.8507 7.42909 66.822 9.16386 68.5622L20.1223 79.5554C20.8477 80.2832 21.1625 81.3247 20.9616 82.3324L18.4725 94.8172C17.9712 97.332 20.5824 99.3226 22.8745 98.1729L36.074 91.5522C36.9431 91.1163 37.967 91.1163 38.8361 91.5522L52.0356 98.1729C54.3277 99.3226 56.9389 97.332 56.4376 94.8172L53.9485 82.3324C53.7476 81.3247 54.0624 80.2832 54.7878 79.5554L65.7463 68.5622C67.481 66.822 66.5798 63.8507 64.1706 63.3673L50.9215 60.7091C50.0698 60.5382 49.3298 60.0156 48.8839 59.2701L40.0987 44.5816C38.9031 42.5827 36.007 42.5826 34.8114 44.5816L26.0263 59.2701C25.5804 60.0156 24.8404 60.5382 23.9886 60.7091Z" fill="#5B3303"/>
<path fill-rule="evenodd" clip-rule="evenodd" d="M34.7915 71.0877C35.1493 71.3177 35.2529 71.7941 35.0229 72.1519L28.092 82.9332C27.8621 83.291 27.3856 83.3946 27.0278 83.1646C26.6701 82.9346 26.5665 82.4581 26.7965 82.1004L33.7273 71.319C33.9573 70.9613 34.4338 70.8577 34.7915 71.0877Z" fill="#FFC530"/>
<path d="M65.7468 68.5624L56.4112 77.9276C55.4486 78.8933 53.9656 79.1112 52.7659 78.4633L37.4556 70.1953L49.7214 60.184C50.0756 60.4404 50.484 60.6214 50.9221 60.7092L64.1712 63.3675C66.5804 63.8508 67.4816 66.8221 65.7468 68.5624Z" fill="#FFC01D"/>
<path fill-rule="evenodd" clip-rule="evenodd" d="M56.702 66.2493C56.7548 66.6713 56.4554 67.0562 56.0334 67.1089L43.7119 68.6491C43.2899 68.7019 42.905 68.4025 42.8522 67.9805C42.7995 67.5585 43.0988 67.1736 43.5208 67.1208L55.8424 65.5806C56.2644 65.5279 56.6493 65.8272 56.702 66.2493Z" fill="#FFD363"/>
<path d="M36.0736 91.5524L22.8742 98.173C21.7568 98.7335 20.5636 98.5477 19.6921 97.9187L37.4547 70.1953L66.6468 66.3448C66.6613 67.1274 66.3793 67.927 65.7459 68.5624L54.7875 79.5556C54.0621 80.2833 53.7473 81.3248 53.9482 82.3326L56.4373 94.8173C56.9386 97.3321 54.3273 99.3227 52.0352 98.173L38.8358 91.5524C37.9667 91.1164 36.9428 91.1164 36.0736 91.5524Z" fill="#CF9500"/>
<path d="M53.9491 82.3326L56.4382 94.8174C56.6952 96.1062 56.1345 97.2574 55.2183 97.9187L37.4556 70.1953L54.7885 79.5556C54.063 80.2833 53.7482 81.3249 53.9491 82.3326Z" fill="#B97D08"/>
<path d="M10.7393 63.3675L23.9884 60.7092C24.8401 60.5384 25.5801 60.0158 26.026 59.2702L34.8112 44.5818C35.409 43.5823 36.4319 43.0826 37.4547 43.0825V70.1953L8.37402 65.5747C8.66364 64.5188 9.50287 63.6155 10.7393 63.3675Z" fill="#FFD056"/>
<path fill-rule="evenodd" clip-rule="evenodd" d="M35.9304 47.0926C36.3557 47.1009 36.6936 47.4524 36.6853 47.8776L36.3002 67.515C36.296 67.7336 36.199 67.94 36.0336 68.0828C35.8682 68.2256 35.6499 68.2915 35.4331 68.2639L14.2555 65.5685C13.8336 65.5148 13.5351 65.1293 13.5888 64.7074C13.6425 64.2855 14.028 63.987 14.4499 64.0407L34.7772 66.6278L35.1454 47.8474C35.1537 47.4222 35.5052 47.0842 35.9304 47.0926Z" fill="#FFE39A"/>
<path fill-rule="evenodd" clip-rule="evenodd" d="M29.7609 66.7657C29.8146 66.3438 30.2001 66.0453 30.622 66.099L35.6277 66.7361C36.0496 66.7898 36.3481 67.1753 36.2944 67.5973C36.2407 68.0192 35.8551 68.3177 35.4332 68.264L30.4276 67.6269C30.0057 67.5732 29.7072 67.1876 29.7609 66.7657Z" fill="#FFFBF0"/>
<path d="M38.2256 75.971C38.2256 76.6089 37.7084 77.1261 37.0704 77.1261C36.4325 77.1261 35.9153 76.6089 35.9153 75.971C35.9153 75.333 36.4325 74.8158 37.0704 74.8158C37.7084 74.8158 38.2256 75.333 38.2256 75.971Z" fill="#BA8600"/>
<path d="M40.536 79.0513C40.536 79.264 40.3636 79.4364 40.1509 79.4364C39.9383 79.4364 39.7659 79.264 39.7659 79.0513C39.7659 78.8387 39.9383 78.6663 40.1509 78.6663C40.3636 78.6663 40.536 78.8387 40.536 79.0513Z" fill="#BA8600"/>
<path d="M35.1453 82.1317C35.1453 82.3444 34.9729 82.5168 34.7603 82.5168C34.5476 82.5168 34.3752 82.3444 34.3752 82.1317C34.3752 81.919 34.5476 81.7467 34.7603 81.7467C34.9729 81.7467 35.1453 81.919 35.1453 82.1317Z" fill="#BA8600"/>
<path d="M39.7657 81.3616C39.7657 81.5743 39.5933 81.7467 39.3807 81.7467C39.168 81.7467 38.9956 81.5743 38.9956 81.3616C38.9956 81.149 39.168 80.9766 39.3807 80.9766C39.5933 80.9766 39.7657 81.149 39.7657 81.3616Z" fill="#BA8600"/>
<path d="M45.1566 84.442C45.1566 84.6546 44.9842 84.827 44.7715 84.827C44.5589 84.827 44.3865 84.6546 44.3865 84.442C44.3865 84.2293 44.5589 84.0569 44.7715 84.0569C44.9842 84.0569 45.1566 84.2293 45.1566 84.442Z" fill="#BA8600"/>
<path d="M39.7657 75.971C39.7657 76.1836 39.5933 76.356 39.3807 76.356C39.168 76.356 38.9956 76.1836 38.9956 75.971C38.9956 75.7583 39.168 75.5859 39.3807 75.5859C39.5933 75.5859 39.7657 75.7583 39.7657 75.971Z" fill="#BA8600"/>
<path d="M37.4554 72.8906C37.4554 73.1032 37.283 73.2756 37.0704 73.2756C36.8577 73.2756 36.6853 73.1032 36.6853 72.8906C36.6853 72.6779 36.8577 72.5055 37.0704 72.5055C37.283 72.5055 37.4554 72.6779 37.4554 72.8906Z" fill="#BA8600"/>
<path d="M41.306 83.6719C41.306 83.8846 41.1336 84.0569 40.9209 84.0569C40.7083 84.0569 40.5359 83.8846 40.5359 83.6719C40.5359 83.4592 40.7083 83.2868 40.9209 83.2868C41.1336 83.2868 41.306 83.4592 41.306 83.6719Z" fill="#BA8600"/>
<path d="M38.9958 78.6663C38.9958 79.0916 38.651 79.4364 38.2257 79.4364C37.8003 79.4364 37.4556 79.0916 37.4556 78.6663C37.4556 78.241 37.8003 77.8962 38.2257 77.8962C38.651 77.8962 38.9958 78.241 38.9958 78.6663Z" fill="#BA8600"/>
<path d="M38.2255 81.7467C38.2255 82.172 37.8807 82.5168 37.4554 82.5168C37.0301 82.5168 36.6853 82.172 36.6853 81.7467C36.6853 81.3213 37.0301 80.9766 37.4554 80.9766C37.8807 80.9766 38.2255 81.3213 38.2255 81.7467Z" fill="#BA8600"/>
<path d="M42.8461 81.7467C42.8461 82.172 42.5013 82.5168 42.076 82.5168C41.6507 82.5168 41.3059 82.172 41.3059 81.7467C41.3059 81.3213 41.6507 80.9766 42.076 80.9766C42.5013 80.9766 42.8461 81.3213 42.8461 81.7467Z" fill="#BA8600"/>
<path d="M35.9154 79.4364C35.9154 79.8617 35.5707 80.2065 35.1453 80.2065C34.72 80.2065 34.3752 79.8617 34.3752 79.4364C34.3752 79.0111 34.72 78.6663 35.1453 78.6663C35.5707 78.6663 35.9154 79.0111 35.9154 79.4364Z" fill="#BA8600"/>
<path d="M191.829 63.3673L205.078 60.7091C205.929 60.5382 206.669 60.0156 207.115 59.27L212.48 50.3012L215.901 44.5816C217.096 42.5826 219.992 42.5826 221.188 44.5816L229.973 59.27C230.419 60.0156 231.159 60.5382 232.011 60.7091L245.26 63.3673C247.669 63.8507 248.57 66.8219 246.835 68.5622L235.877 79.5554C235.152 80.2831 234.837 81.3247 235.038 82.3324L237.527 94.8172C238.028 97.332 235.417 99.3226 233.125 98.1729L219.925 91.5522C219.056 91.1163 218.032 91.1163 217.163 91.5522L203.964 98.1729C201.672 99.3226 199.06 97.332 199.562 94.8172L202.051 82.3324C202.252 81.3247 201.937 80.2831 201.211 79.5554L190.253 68.5622C188.518 66.8219 189.419 63.8507 191.829 63.3673Z" fill="#F7B307"/>
<path fill-rule="evenodd" clip-rule="evenodd" d="M191.525 61.8572L204.774 59.199C205.2 59.1136 205.57 58.8523 205.793 58.4795L214.579 43.791C216.372 40.7926 220.716 40.7926 222.509 43.7911L231.295 58.4795C231.517 58.8523 231.887 59.1136 232.313 59.199L245.562 61.8572C249.176 62.5823 250.528 67.0392 247.926 69.6496L236.968 80.6428C236.605 81.0067 236.447 81.5274 236.548 82.0313L239.037 94.5161C239.789 98.2882 235.872 101.274 232.434 99.5496L219.234 92.929C218.8 92.711 218.288 92.711 217.853 92.929L204.654 99.5496C201.216 101.274 197.299 98.2882 198.051 94.5161L200.54 82.0313C200.64 81.5274 200.483 81.0067 200.12 80.6428L189.162 69.6496C186.56 67.0392 187.912 62.5823 191.525 61.8572ZM205.077 60.7091L191.828 63.3673C189.419 63.8507 188.518 66.822 190.253 68.5622L201.211 79.5554C201.937 80.2832 202.251 81.3247 202.05 82.3324L199.561 94.8172C199.06 97.332 201.671 99.3226 203.963 98.1729L217.163 91.5522C218.032 91.1163 219.056 91.1163 219.925 91.5522L233.124 98.1729C235.417 99.3226 238.028 97.332 237.526 94.8172L235.037 82.3324C234.836 81.3247 235.151 80.2832 235.877 79.5554L246.835 68.5622C248.57 66.822 247.669 63.8507 245.259 63.3673L232.01 60.7091C231.159 60.5382 230.419 60.0156 229.973 59.2701L221.188 44.5816C219.992 42.5827 217.096 42.5826 215.9 44.5816L207.115 59.2701C206.669 60.0156 205.929 60.5382 205.077 60.7091Z" fill="#5B3303"/>
<path fill-rule="evenodd" clip-rule="evenodd" d="M215.88 71.0877C216.238 71.3177 216.342 71.7941 216.112 72.1519L209.181 82.9332C208.951 83.291 208.474 83.3946 208.117 83.1646C207.759 82.9346 207.655 82.4581 207.885 82.1004L214.816 71.319C215.046 70.9613 215.523 70.8577 215.88 71.0877Z" fill="#FFC530"/>
<path d="M246.836 68.5624L237.5 77.9276C236.537 78.8933 235.054 79.1112 233.855 78.4633L218.544 70.1953L230.81 60.184C231.164 60.4404 231.573 60.6214 232.011 60.7092L245.26 63.3675C247.669 63.8508 248.57 66.8221 246.836 68.5624Z" fill="#FFC01D"/>
<path fill-rule="evenodd" clip-rule="evenodd" d="M237.791 66.2493C237.844 66.6713 237.544 67.0562 237.122 67.1089L224.801 68.6491C224.379 68.7019 223.994 68.4025 223.941 67.9805C223.888 67.5585 224.188 67.1736 224.61 67.1208L236.931 65.5806C237.353 65.5279 237.738 65.8272 237.791 66.2493Z" fill="#FFD363"/>
<path d="M217.163 91.5524L203.963 98.173C202.846 98.7335 201.653 98.5477 200.781 97.9187L218.544 70.1953L247.736 66.3448C247.75 67.1274 247.468 67.927 246.835 68.5624L235.876 79.5556C235.151 80.2833 234.836 81.3248 235.037 82.3326L237.526 94.8173C238.027 97.3321 235.416 99.3227 233.124 98.173L219.925 91.5524C219.056 91.1164 218.032 91.1164 217.163 91.5524Z" fill="#CF9500"/>
<path d="M235.038 82.3326L237.527 94.8174C237.784 96.1062 237.223 97.2574 236.307 97.9187L218.544 70.1953L235.877 79.5556C235.152 80.2833 234.837 81.3249 235.038 82.3326Z" fill="#B97D08"/>
<path d="M191.828 63.3675L205.077 60.7092C205.929 60.5384 206.669 60.0158 207.115 59.2702L215.9 44.5818C216.498 43.5823 217.521 43.0826 218.544 43.0825V70.1953L189.463 65.5747C189.753 64.5188 190.592 63.6155 191.828 63.3675Z" fill="#FFD056"/>
<path fill-rule="evenodd" clip-rule="evenodd" d="M217.019 47.0926C217.445 47.1009 217.782 47.4524 217.774 47.8776L217.389 67.515C217.385 67.7336 217.288 67.94 217.122 68.0828C216.957 68.2256 216.739 68.2915 216.522 68.2639L195.344 65.5685C194.922 65.5148 194.624 65.1293 194.678 64.7074C194.731 64.2855 195.117 63.987 195.539 64.0407L215.866 66.6278L216.234 47.8474C216.243 47.4222 216.594 47.0842 217.019 47.0926Z" fill="#FFE39A"/>
<path fill-rule="evenodd" clip-rule="evenodd" d="M210.85 66.7657C210.903 66.3438 211.289 66.0453 211.711 66.099L216.717 66.7361C217.138 66.7898 217.437 67.1753 217.383 67.5973C217.33 68.0192 216.944 68.3177 216.522 68.264L211.516 67.6269C211.095 67.5732 210.796 67.1876 210.85 66.7657Z" fill="#FFFBF0"/>
<path d="M219.314 75.971C219.314 76.6089 218.797 77.1261 218.159 77.1261C217.521 77.1261 217.004 76.6089 217.004 75.971C217.004 75.333 217.521 74.8158 218.159 74.8158C218.797 74.8158 219.314 75.333 219.314 75.971Z" fill="#BA8600"/>
<path d="M221.625 79.0513C221.625 79.264 221.452 79.4364 221.24 79.4364C221.027 79.4364 220.855 79.264 220.855 79.0513C220.855 78.8387 221.027 78.6663 221.24 78.6663C221.452 78.6663 221.625 78.8387 221.625 79.0513Z" fill="#BA8600"/>
<path d="M216.234 82.1317C216.234 82.3444 216.062 82.5168 215.849 82.5168C215.637 82.5168 215.464 82.3444 215.464 82.1317C215.464 81.919 215.637 81.7467 215.849 81.7467C216.062 81.7467 216.234 81.919 216.234 82.1317Z" fill="#BA8600"/>
<path d="M220.855 81.3616C220.855 81.5743 220.682 81.7467 220.47 81.7467C220.257 81.7467 220.084 81.5743 220.084 81.3616C220.084 81.149 220.257 80.9766 220.47 80.9766C220.682 80.9766 220.855 81.149 220.855 81.3616Z" fill="#BA8600"/>
<path d="M226.245 84.442C226.245 84.6546 226.073 84.827 225.86 84.827C225.648 84.827 225.475 84.6546 225.475 84.442C225.475 84.2293 225.648 84.0569 225.86 84.0569C226.073 84.0569 226.245 84.2293 226.245 84.442Z" fill="#BA8600"/>
<path d="M220.855 75.971C220.855 76.1836 220.682 76.356 220.47 76.356C220.257 76.356 220.084 76.1836 220.084 75.971C220.084 75.7583 220.257 75.5859 220.47 75.5859C220.682 75.5859 220.855 75.7583 220.855 75.971Z" fill="#BA8600"/>
<path d="M218.544 72.8906C218.544 73.1032 218.372 73.2756 218.159 73.2756C217.947 73.2756 217.774 73.1032 217.774 72.8906C217.774 72.6779 217.947 72.5055 218.159 72.5055C218.372 72.5055 218.544 72.6779 218.544 72.8906Z" fill="#BA8600"/>
<path d="M222.395 83.6719C222.395 83.8846 222.222 84.0569 222.01 84.0569C221.797 84.0569 221.625 83.8846 221.625 83.6719C221.625 83.4592 221.797 83.2868 222.01 83.2868C222.222 83.2868 222.395 83.4592 222.395 83.6719Z" fill="#BA8600"/>
<path d="M220.085 78.6663C220.085 79.0916 219.74 79.4364 219.315 79.4364C218.889 79.4364 218.544 79.0916 218.544 78.6663C218.544 78.241 218.889 77.8962 219.315 77.8962C219.74 77.8962 220.085 78.241 220.085 78.6663Z" fill="#BA8600"/>
<path d="M219.314 81.7467C219.314 82.172 218.97 82.5168 218.544 82.5168C218.119 82.5168 217.774 82.172 217.774 81.7467C217.774 81.3213 218.119 80.9766 218.544 80.9766C218.97 80.9766 219.314 81.3213 219.314 81.7467Z" fill="#BA8600"/>
<path d="M223.935 81.7467C223.935 82.172 223.59 82.5168 223.165 82.5168C222.74 82.5168 222.395 82.172 222.395 81.7467C222.395 81.3213 222.74 80.9766 223.165 80.9766C223.59 80.9766 223.935 81.3213 223.935 81.7467Z" fill="#BA8600"/>
<path d="M217.004 79.4364C217.004 79.8617 216.66 80.2065 216.234 80.2065C215.809 80.2065 215.464 79.8617 215.464 79.4364C215.464 79.0111 215.809 78.6663 216.234 78.6663C216.66 78.6663 217.004 79.0111 217.004 79.4364Z" fill="#BA8600"/>
</svg>
