<svg width="55" height="68" viewBox="0 0 55 68" fill="none" xmlns="http://www.w3.org/2000/svg">
<path fill-rule="evenodd" clip-rule="evenodd" d="M7.87557 2.33334C4.08177 2.33334 1.8189 6.56153 3.92333 9.71817L20.1112 34L2.28228 60.7435C0.879333 62.8479 2.38791 65.6667 4.91711 65.6667H50.0832C52.6124 65.6667 54.1209 62.8479 52.718 60.7435L34.889 34L51.0769 9.71817C53.1813 6.56153 50.9185 2.33334 47.1247 2.33334H7.87557Z" fill="#D7FDFF"/>
<path fill-rule="evenodd" clip-rule="evenodd" d="M2.60597 10.5964C-0.199926 6.38758 2.81723 0.75 7.87563 0.75H47.1247C52.1831 0.75 55.2003 6.38759 52.3944 10.5964L36.792 34L54.0355 59.8652C56.1399 63.0218 53.877 67.25 50.0832 67.25H4.91717C1.12337 67.25 -1.1395 63.0218 0.964927 59.8652L18.2084 34L2.60597 10.5964ZM34.8891 34L51.0769 9.71816C53.1814 6.56152 50.9185 2.33333 47.1247 2.33333H7.87563C4.08182 2.33333 1.81896 6.56152 3.92339 9.71816L20.1113 34L2.28234 60.7435C0.879392 62.8479 2.38797 65.6667 4.91717 65.6667H50.0832C52.6124 65.6667 54.121 62.8479 52.7181 60.7435L34.8891 34Z" fill="#03265B"/>
<path d="M7.87557 2.33334C4.08177 2.33334 1.8189 6.56153 3.92333 9.71817L20.1112 34L2.28228 60.7435C0.879333 62.8479 2.38791 65.6667 4.91711 65.6667H21.1668L27.5001 34L21.1668 2.33334H7.87557Z" fill="#A4F3F8"/>
<path d="M7.87557 2.33334C4.08177 2.33334 1.8189 6.56153 3.92333 9.71817L20.1112 34L2.28228 60.7435C0.879333 62.8479 2.38791 65.6667 4.91711 65.6667H14.8335L27.5001 34L14.8334 2.33334H7.87557Z" fill="#F8FFFF"/>
<path d="M52.7179 60.7435C54.1208 62.8479 52.6122 65.6667 50.083 65.6667H40.1667L27.5 34L40.1667 2.33334H47.1245C50.9183 2.33334 53.1812 6.56153 51.0768 9.71817L34.8889 34L52.7179 60.7435Z" fill="#A4F3F8"/>
<path fill-rule="evenodd" clip-rule="evenodd" d="M3.92333 9.71817C1.8189 6.56153 4.08177 2.33334 7.87557 2.33334H12.6256C8.83177 2.33334 6.5689 6.56153 8.67333 9.71817L24.8612 34L7.03228 60.7435C5.62933 62.8479 7.13791 65.6667 9.66711 65.6667H4.91711C2.38791 65.6667 0.879333 62.8479 2.28228 60.7435L20.1112 34L3.92333 9.71817Z" fill="#86F8FF"/>
<path fill-rule="evenodd" clip-rule="evenodd" d="M45.3328 65.6667H50.0828C52.612 65.6667 54.1206 62.8479 52.7176 60.7435L34.8886 34L51.0765 9.71817C53.1809 6.56153 50.9181 2.33334 47.1243 2.33334H42.3743C46.1681 2.33334 48.431 6.56153 46.3266 9.71817L30.1387 34L47.9677 60.7435C49.3706 62.8479 47.862 65.6667 45.3328 65.6667Z" fill="#15D6E2"/>
<path d="M50.0837 65.6667H4.91766C3.36282 65.6667 2.1937 64.6014 1.84961 63.2917H53.1518C52.8077 64.6014 51.6386 65.6667 50.0837 65.6667Z" fill="#8B3ACA"/>
<path d="M3.92383 9.71811L51.0774 9.71811L35.7141 32.7631C34.5395 34.525 32.5621 35.5833 30.4445 35.5833H24.5568C22.4392 35.5833 20.4618 34.525 19.2872 32.7631L3.92383 9.71811Z" fill="#C25FFF"/>
<path fill-rule="evenodd" clip-rule="evenodd" d="M5.33301 10.4875C5.33301 10.0503 5.68745 9.69583 6.12467 9.69583H48.8747C49.3119 9.69583 49.6663 10.0503 49.6663 10.4875C49.6663 10.9247 49.3119 11.2792 48.8747 11.2792H6.12467C5.68745 11.2792 5.33301 10.9247 5.33301 10.4875Z" fill="#8232B2"/>
<path fill-rule="evenodd" clip-rule="evenodd" d="M8.67383 9.71811H3.92383L19.2872 32.7631C20.4618 34.525 22.4392 35.5833 24.5568 35.5833H29.3068C27.1892 35.5833 25.2118 34.525 24.0372 32.7631L8.67383 9.71811Z" fill="#E56CEF"/>
<path fill-rule="evenodd" clip-rule="evenodd" d="M25.6943 35.5833H30.4443C32.5619 35.5833 34.5394 34.525 35.714 32.7631L51.0772 9.71811H46.3272L30.964 32.7631C29.7894 34.525 27.8119 35.5833 25.6943 35.5833Z" fill="#8B3ACA"/>
<path d="M29.0837 50.625C29.0837 51.4994 28.3748 52.2083 27.5003 52.2083C26.6259 52.2083 25.917 51.4994 25.917 50.625C25.917 49.7505 26.6259 49.0417 27.5003 49.0417C28.3748 49.0417 29.0837 49.7505 29.0837 50.625Z" fill="#8B3ACA"/>
<path d="M29.875 37.9583C29.875 39.27 28.8117 40.3333 27.5 40.3333C26.1883 40.3333 25.125 39.27 25.125 37.9583C25.125 36.6467 26.1883 35.5833 27.5 35.5833C28.8117 35.5833 29.875 36.6467 29.875 37.9583Z" fill="#8B3ACA"/>
<path d="M30.6663 34.7917C30.6663 36.5406 29.2486 37.9583 27.4997 37.9583C25.7508 37.9583 24.333 36.5406 24.333 34.7917C24.333 33.0428 25.7508 31.625 27.4997 31.625C29.2486 31.625 30.6663 33.0428 30.6663 34.7917Z" fill="#C25FFF"/>
<path d="M26.7083 28.4584C26.7083 28.8956 26.3539 29.25 25.9167 29.25C25.4794 29.25 25.125 28.8956 25.125 28.4584C25.125 28.0211 25.4794 27.6667 25.9167 27.6667C26.3539 27.6667 26.7083 28.0211 26.7083 28.4584Z" fill="#FD89FF"/>
<path d="M25.9163 31.625C25.9163 32.0622 25.5619 32.4167 25.1247 32.4167C24.6874 32.4167 24.333 32.0622 24.333 31.625C24.333 31.1878 24.6874 30.8333 25.1247 30.8333C25.5619 30.8333 25.9163 31.1878 25.9163 31.625Z" fill="#FD89FF"/>
<path d="M29.083 32.8125C29.083 33.4683 28.5513 34 27.8955 34C27.2397 34 26.708 33.4683 26.708 32.8125C26.708 32.1567 27.2397 31.625 27.8955 31.625C28.5513 31.625 29.083 32.1567 29.083 32.8125Z" fill="#FD89FF"/>
<path d="M31.4583 30.8334C31.4583 31.2706 31.1039 31.625 30.6667 31.625C30.2294 31.625 29.875 31.2706 29.875 30.8334C29.875 30.3961 30.2294 30.0417 30.6667 30.0417C31.1039 30.0417 31.4583 30.3961 31.4583 30.8334Z" fill="#FD89FF"/>
<path d="M27.4997 30.4375C27.4997 30.6561 27.3225 30.8334 27.1038 30.8334C26.8852 30.8334 26.708 30.6561 26.708 30.4375C26.708 30.2189 26.8852 30.0417 27.1038 30.0417C27.3225 30.0417 27.4997 30.2189 27.4997 30.4375Z" fill="#FD89FF"/>
<path d="M23.5417 28.8542C23.5417 29.0728 23.3644 29.25 23.1458 29.25C22.9272 29.25 22.75 29.0728 22.75 28.8542C22.75 28.6356 22.9272 28.4583 23.1458 28.4583C23.3644 28.4583 23.5417 28.6356 23.5417 28.8542Z" fill="#FD89FF"/>
<path d="M31.4583 25.2917C31.4583 25.7289 31.1039 26.0833 30.6667 26.0833C30.2294 26.0833 29.875 25.7289 29.875 25.2917C29.875 24.8544 30.2294 24.5 30.6667 24.5C31.1039 24.5 31.4583 24.8544 31.4583 25.2917Z" fill="#FD89FF"/>
<path d="M26.7083 22.9167C26.7083 23.3539 26.3539 23.7083 25.9167 23.7083C25.4794 23.7083 25.125 23.3539 25.125 22.9167C25.125 22.4794 25.4794 22.125 25.9167 22.125C26.3539 22.125 26.7083 22.4794 26.7083 22.9167Z" fill="#FD89FF"/>
<path d="M33.0413 21.3334C33.0413 21.7706 32.6869 22.125 32.2497 22.125C31.8124 22.125 31.458 21.7706 31.458 21.3334C31.458 20.8961 31.8124 20.5417 32.2497 20.5417C32.6869 20.5417 33.0413 20.8961 33.0413 21.3334Z" fill="#FD89FF"/>
<path d="M19.5833 18.9584C19.5833 19.3956 19.2289 19.75 18.7917 19.75C18.3544 19.75 18 19.3956 18 18.9584C18 18.5211 18.3544 18.1667 18.7917 18.1667C19.2289 18.1667 19.5833 18.5211 19.5833 18.9584Z" fill="#FD89FF"/>
<path d="M19.5833 24.5C19.5833 24.9372 19.2289 25.2917 18.7917 25.2917C18.3544 25.2917 18 24.9372 18 24.5C18 24.0628 18.3544 23.7083 18.7917 23.7083C19.2289 23.7083 19.5833 24.0628 19.5833 24.5Z" fill="#FD89FF"/>
<path d="M36.2083 23.7084C36.2083 24.1456 35.8539 24.5 35.4167 24.5C34.9794 24.5 34.625 24.1456 34.625 23.7084C34.625 23.2711 34.9794 22.9167 35.4167 22.9167C35.8539 22.9167 36.2083 23.2711 36.2083 23.7084Z" fill="#FD89FF"/>
<path d="M29.8743 28.4584C29.8743 28.8956 29.5199 29.25 29.0827 29.25C28.6455 29.25 28.291 28.8956 28.291 28.4584C28.291 28.0211 28.6455 27.6667 29.0827 27.6667C29.5199 27.6667 29.8743 28.0211 29.8743 28.4584Z" fill="#FD89FF"/>
<path d="M33.8333 29.25C33.8333 29.6872 33.4789 30.0417 33.0417 30.0417C32.6044 30.0417 32.25 29.6872 32.25 29.25C32.25 28.8128 32.6044 28.4583 33.0417 28.4583C33.4789 28.4583 33.8333 28.8128 33.8333 29.25Z" fill="#FD89FF"/>
<path d="M37.7913 20.5417C37.7913 20.9789 37.4369 21.3333 36.9997 21.3333C36.5624 21.3333 36.208 20.9789 36.208 20.5417C36.208 20.1044 36.5624 19.75 36.9997 19.75C37.4369 19.75 37.7913 20.1044 37.7913 20.5417Z" fill="#FD89FF"/>
<path d="M24.3327 25.6875C24.3327 25.9061 24.1555 26.0834 23.9368 26.0834C23.7182 26.0834 23.541 25.9061 23.541 25.6875C23.541 25.4689 23.7182 25.2917 23.9368 25.2917C24.1555 25.2917 24.3327 25.4689 24.3327 25.6875Z" fill="#FD89FF"/>
<path d="M28.2917 26.4792C28.2917 26.6978 28.1144 26.875 27.8958 26.875C27.6772 26.875 27.5 26.6978 27.5 26.4792C27.5 26.2606 27.6772 26.0833 27.8958 26.0833C28.1144 26.0833 28.2917 26.2606 28.2917 26.4792Z" fill="#FD89FF"/>
<path d="M29.0827 22.5208C29.0827 22.7394 28.9055 22.9167 28.6868 22.9167C28.4682 22.9167 28.291 22.7394 28.291 22.5208C28.291 22.3022 28.4682 22.125 28.6868 22.125C28.9055 22.125 29.0827 22.3022 29.0827 22.5208Z" fill="#FD89FF"/>
<path d="M25.9167 19.3542C25.9167 19.5728 25.7394 19.75 25.5208 19.75C25.3022 19.75 25.125 19.5728 25.125 19.3542C25.125 19.1356 25.3022 18.9583 25.5208 18.9583C25.7394 18.9583 25.9167 19.1356 25.9167 19.3542Z" fill="#FD89FF"/>
<path d="M23.5417 20.9375C23.5417 21.1561 23.3644 21.3334 23.1458 21.3334C22.9272 21.3334 22.75 21.1561 22.75 20.9375C22.75 20.7189 22.9272 20.5417 23.1458 20.5417C23.3644 20.5417 23.5417 20.7189 23.5417 20.9375Z" fill="#FD89FF"/>
<path d="M18.7917 21.7292C18.7917 21.9478 18.6144 22.125 18.3958 22.125C18.1772 22.125 18 21.9478 18 21.7292C18 21.5106 18.1772 21.3333 18.3958 21.3333C18.6144 21.3333 18.7917 21.5106 18.7917 21.7292Z" fill="#FD89FF"/>
<path d="M15.6247 19.3542C15.6247 19.5728 15.4475 19.75 15.2288 19.75C15.0102 19.75 14.833 19.5728 14.833 19.3542C14.833 19.1356 15.0102 18.9583 15.2288 18.9583C15.4475 18.9583 15.6247 19.1356 15.6247 19.3542Z" fill="#FD89FF"/>
<path d="M21.9577 24.1042C21.9577 24.3228 21.7805 24.5 21.5618 24.5C21.3432 24.5 21.166 24.3228 21.166 24.1042C21.166 23.8856 21.3432 23.7083 21.5618 23.7083C21.7805 23.7083 21.9577 23.8856 21.9577 24.1042Z" fill="#FD89FF"/>
<path d="M22.7497 26.4792C22.7497 26.6978 22.5725 26.875 22.3538 26.875C22.1352 26.875 21.958 26.6978 21.958 26.4792C21.958 26.2606 22.1352 26.0833 22.3538 26.0833C22.5725 26.0833 22.7497 26.2606 22.7497 26.4792Z" fill="#FD89FF"/>
<path d="M20.3747 26.4792C20.3747 26.6978 20.1975 26.875 19.9788 26.875C19.7602 26.875 19.583 26.6978 19.583 26.4792C19.583 26.2606 19.7602 26.0833 19.9788 26.0833C20.1975 26.0833 20.3747 26.2606 20.3747 26.4792Z" fill="#FD89FF"/>
<path d="M33.0417 23.3125C33.0417 23.5311 32.8644 23.7084 32.6458 23.7084C32.4272 23.7084 32.25 23.5311 32.25 23.3125C32.25 23.0939 32.4272 22.9167 32.6458 22.9167C32.8644 22.9167 33.0417 23.0939 33.0417 23.3125Z" fill="#FD89FF"/>
<path d="M34.6247 26.4792C34.6247 26.6978 34.4475 26.875 34.2288 26.875C34.0102 26.875 33.833 26.6978 33.833 26.4792C33.833 26.2606 34.0102 26.0833 34.2288 26.0833C34.4475 26.0833 34.6247 26.2606 34.6247 26.4792Z" fill="#FD89FF"/>
<path d="M39.3747 20.9375C39.3747 21.1561 39.1975 21.3334 38.9788 21.3334C38.7602 21.3334 38.583 21.1561 38.583 20.9375C38.583 20.7189 38.7602 20.5417 38.9788 20.5417C39.1975 20.5417 39.3747 20.7189 39.3747 20.9375Z" fill="#FD89FF"/>
<path d="M34.6247 20.1458C34.6247 20.3644 34.4475 20.5417 34.2288 20.5417C34.0102 20.5417 33.833 20.3644 33.833 20.1458C33.833 19.9272 34.0102 19.75 34.2288 19.75C34.4475 19.75 34.6247 19.9272 34.6247 20.1458Z" fill="#FD89FF"/>
<path d="M32.2497 17.7708C32.2497 17.9894 32.0725 18.1667 31.8538 18.1667C31.6352 18.1667 31.458 17.9894 31.458 17.7708C31.458 17.5522 31.6352 17.375 31.8538 17.375C32.0725 17.375 32.2497 17.5522 32.2497 17.7708Z" fill="#FD89FF"/>
<path d="M29.8747 20.1458C29.8747 20.3644 29.6975 20.5417 29.4788 20.5417C29.2602 20.5417 29.083 20.3644 29.083 20.1458C29.083 19.9272 29.2602 19.75 29.4788 19.75C29.6975 19.75 29.8747 19.9272 29.8747 20.1458Z" fill="#FD89FF"/>
<path d="M27.4997 20.1458C27.4997 20.3644 27.3225 20.5417 27.1038 20.5417C26.8852 20.5417 26.708 20.3644 26.708 20.1458C26.708 19.9272 26.8852 19.75 27.1038 19.75C27.3225 19.75 27.4997 19.9272 27.4997 20.1458Z" fill="#FD89FF"/>
<path d="M21.9577 16.9792C21.9577 17.1978 21.7805 17.375 21.5618 17.375C21.3432 17.375 21.166 17.1978 21.166 16.9792C21.166 16.7606 21.3432 16.5833 21.5618 16.5833C21.7805 16.5833 21.9577 16.7606 21.9577 16.9792Z" fill="#FD89FF"/>
<path d="M38.5827 16.9792C38.5827 17.1978 38.4055 17.375 38.1868 17.375C37.9682 17.375 37.791 17.1978 37.791 16.9792C37.791 16.7606 37.9682 16.5833 38.1868 16.5833C38.4055 16.5833 38.5827 16.7606 38.5827 16.9792Z" fill="#FD89FF"/>
<path d="M32.2497 27.2708C32.2497 27.4894 32.0725 27.6667 31.8538 27.6667C31.6352 27.6667 31.458 27.4894 31.458 27.2708C31.458 27.0522 31.6352 26.875 31.8538 26.875C32.0725 26.875 32.2497 27.0522 32.2497 27.2708Z" fill="#FD89FF"/>
<path fill-rule="evenodd" clip-rule="evenodd" d="M4.5115 60.7924C4.88011 61.0276 5.36955 60.9194 5.6047 60.5508L20.2505 37.5924C20.4857 37.2238 20.3775 36.7344 20.0089 36.4992C19.6403 36.2641 19.1508 36.3723 18.9157 36.7409L4.26985 59.6992C4.0347 60.0678 4.14289 60.5573 4.5115 60.7924Z" fill="#A8FFEF"/>
<path fill-rule="evenodd" clip-rule="evenodd" d="M8.17361 55.0528C8.54222 55.288 9.03166 55.1798 9.26681 54.8112L12.9283 49.0716C13.1634 48.703 13.0552 48.2136 12.6866 47.9784C12.318 47.7433 11.8286 47.8515 11.5934 48.2201L7.93196 53.9596C7.69681 54.3283 7.805 54.8177 8.17361 55.0528Z" fill="white"/>
<path fill-rule="evenodd" clip-rule="evenodd" d="M4.5115 7.20756C4.88011 6.97242 5.36955 7.08061 5.6047 7.44922L20.2505 30.4076C20.4857 30.7762 20.3775 31.2656 20.0089 31.5007C19.6403 31.7359 19.1508 31.6277 18.9157 31.2591L4.26985 8.30076C4.0347 7.93215 4.14289 7.44271 4.5115 7.20756Z" fill="#A8FFEF"/>
<path fill-rule="evenodd" clip-rule="evenodd" d="M8.17361 12.9472C8.54222 12.712 9.03166 12.8202 9.26681 13.1888L12.9283 18.9284C13.1634 19.297 13.0552 19.7864 12.6866 20.0216C12.318 20.2567 11.8286 20.1485 11.5934 19.7799L7.93196 14.0404C7.69681 13.6717 7.805 13.1823 8.17361 12.9472Z" fill="white"/>
<path fill-rule="evenodd" clip-rule="evenodd" d="M3.75 63.2917C3.75 62.8544 4.10444 62.5 4.54167 62.5H50.4583C50.8956 62.5 51.25 62.8544 51.25 63.2917C51.25 63.7289 50.8956 64.0833 50.4583 64.0833H4.54167C4.10444 64.0833 3.75 63.7289 3.75 63.2917Z" fill="#15D6E2"/>
<path fill-rule="evenodd" clip-rule="evenodd" d="M5.33301 4.70832C5.33301 4.2711 5.68745 3.91666 6.12467 3.91666H48.8747C49.3119 3.91666 49.6663 4.2711 49.6663 4.70832C49.6663 5.14555 49.3119 5.49999 48.8747 5.49999H6.12467C5.68745 5.49999 5.33301 5.14555 5.33301 4.70832Z" fill="#15D6E2"/>
</svg>
