<svg width="71" height="70" viewBox="0 0 71 70" fill="none" xmlns="http://www.w3.org/2000/svg">
<path d="M0.778873 35C0.778874 16.0794 16.1171 0.741153 35.0377 0.741154C53.9584 0.741156 69.2966 16.0794 69.2966 35C69.2966 53.9206 53.9584 69.2589 35.0377 69.2589C16.1171 69.2589 0.778871 53.9206 0.778873 35Z" stroke="black" stroke-width="1.48229"/>
<path d="M30.4707 25.7623C30.5594 25.6736 30.6924 25.6293 30.8254 25.6293C31.0028 25.6293 31.0915 25.6736 31.1801 25.7623L40.5805 35.1626C40.6692 35.2513 40.7135 35.34 40.7135 35.5174C40.7135 35.6504 40.6692 35.7834 40.5805 35.8721L31.1801 45.2724C31.0915 45.3611 31.0028 45.4055 30.8254 45.4055C30.6924 45.4055 30.5594 45.3611 30.4707 45.2724L30.116 44.9177C30.0273 44.829 29.9829 44.696 29.9829 44.563C29.9829 44.3856 30.0273 44.2526 30.116 44.1639L38.8068 35.5174L30.116 26.8708C30.0273 26.7378 29.9829 26.6048 29.9829 26.4718C29.9829 26.2944 30.0273 26.2057 30.116 26.117L30.4707 25.7623Z" fill="black"/>
</svg>
