<svg width="44" height="45" viewBox="0 0 44 45" fill="none" xmlns="http://www.w3.org/2000/svg">
<path d="M0 22.5532C0 34.7289 9.84974 44.5992 22 44.5992C34.1503 44.5992 44 34.7289 44 22.5532C44 10.3776 34.1503 0.507309 22 0.507309C9.84974 0.507309 0 10.3776 0 22.5532Z" fill="#1DA1F2"/>
<path d="M33 15.6639C32.175 16.0772 31.35 16.215 30.3875 16.3528C31.35 15.8017 32.0375 14.9749 32.3125 13.8727C31.4875 14.4238 30.525 14.6994 29.425 14.9749C28.6 14.1482 27.3625 13.5971 26.125 13.5971C23.2375 13.5971 21.0375 16.3528 21.725 19.1086C18.0125 18.9708 14.7125 17.1795 12.375 14.4238C11.1375 16.4906 11.825 19.1086 13.75 20.4864C13.0625 20.4864 12.375 20.2109 11.6875 19.9353C11.6875 22.0021 13.2 23.9311 15.2625 24.4823C14.575 24.62 13.8875 24.7578 13.2 24.62C13.75 26.4113 15.4 27.7891 17.4625 27.7891C15.8125 29.0292 13.3375 29.7182 11 29.4426C13.0625 30.6827 15.4 31.5094 17.875 31.5094C26.2625 31.5094 30.9375 24.4823 30.6625 18.0063C31.625 17.4551 32.45 16.6284 33 15.6639Z" fill="white"/>
</svg>
