<svg width="44" height="44" viewBox="0 0 44 44" fill="none" xmlns="http://www.w3.org/2000/svg">
<path d="M0 22C0 34.1503 9.84974 44 22 44C34.1503 44 44 34.1503 44 22C44 9.84974 34.1503 0 22 0C9.84974 0 0 9.84974 0 22Z" fill="#25D366"/>
<path fill-rule="evenodd" clip-rule="evenodd" d="M29.7 14.1625C27.6375 12.1 24.8875 11 22 11C15.95 11 11 15.95 11 22C11 23.925 11.55 25.85 12.5125 27.5L11 33L16.775 31.4875C18.425 32.3125 20.2125 32.8625 22 32.8625C28.05 32.8625 33 27.9125 33 21.8625C33 18.975 31.7625 16.225 29.7 14.1625ZM22 31.075C20.35 31.075 18.7 30.6625 17.325 29.8375L17.05 29.7L13.6125 30.6625L14.575 27.3625L14.3 26.95C13.3375 25.4375 12.925 23.7875 12.925 22.1375C12.925 17.1875 17.05 13.0625 22 13.0625C24.475 13.0625 26.675 14.025 28.4625 15.675C30.25 17.4625 31.075 19.6625 31.075 22.1375C31.075 26.95 27.0875 31.075 22 31.075ZM26.95 24.2C26.675 24.0625 25.3 23.375 25.025 23.375C24.75 23.2375 24.6125 23.2375 24.475 23.5125C24.3375 23.7875 23.7875 24.3375 23.65 24.6125C23.5125 24.75 23.375 24.75 23.1 24.75C22.825 24.6125 22 24.3375 20.9 23.375C20.075 22.6875 19.525 21.725 19.3875 21.45C19.25 21.175 19.3875 21.0375 19.525 20.9C19.6625 20.7625 19.8 20.625 19.9375 20.4875C20.075 20.35 20.075 20.2125 20.2125 20.075C20.35 19.9375 20.2125 19.8 20.2125 19.6625C20.2125 19.525 19.6625 18.15 19.3875 17.6C19.25 17.1875 18.975 17.1875 18.8375 17.1875C18.7 17.1875 18.5625 17.1875 18.2875 17.1875C18.15 17.1875 17.875 17.1875 17.6 17.4625C17.325 17.7375 16.6375 18.425 16.6375 19.8C16.6375 21.175 17.6 22.4125 17.7375 22.6875C17.875 22.825 19.6625 25.7125 22.4125 26.8125C24.75 27.775 25.1625 27.5 25.7125 27.5C26.2625 27.5 27.3625 26.8125 27.5 26.2625C27.775 25.575 27.775 25.025 27.6375 25.025C27.5 24.3375 27.225 24.3375 26.95 24.2Z" fill="white"/>
</svg>
