<svg width="12" height="16" viewBox="0 0 12 16" fill="none" xmlns="http://www.w3.org/2000/svg">
<path d="M6.6129 0.209705L6.70711 0.292893L11.7071 5.29289C12.0976 5.68342 12.0976 6.31658 11.7071 6.70711C11.3466 7.06759 10.7794 7.09532 10.3871 6.7903L10.2929 6.70711L7 3.415V15C7 15.5523 6.55228 16 6 16C5.48716 16 5.06449 15.614 5.00673 15.1166L5 15V3.415L1.70711 6.70711C1.34662 7.06759 0.779392 7.09532 0.387101 6.7903L0.292893 6.70711C-0.0675907 6.34662 -0.0953203 5.77939 0.209705 5.3871L0.292893 5.29289L5.29289 0.292893C5.65338 -0.0675907 6.22061 -0.0953203 6.6129 0.209705Z" fill="#FFBD21"/>
</svg>
