<svg width="14" height="14" viewBox="0 0 14 14" fill="none" xmlns="http://www.w3.org/2000/svg">
<path d="M3.37726 13.0646V4.34514H0.665194V13.0646H3.37726ZM2.03581 3.1495C2.44408 3.1495 2.82319 3.00369 3.14397 2.68291C3.43559 2.39129 3.61056 2.01218 3.61056 1.57475C3.61056 1.16648 3.43559 0.787375 3.14397 0.466593C2.82319 0.174972 2.44408 0 2.03581 0C1.59838 0 1.21927 0.174972 0.927652 0.466593C0.60687 0.787375 0.46106 1.16648 0.46106 1.57475C0.46106 2.01218 0.60687 2.39129 0.927652 2.68291C1.21927 3.00369 1.59838 3.1495 2.03581 3.1495ZM13.5257 13.0646V8.28202C13.5257 6.94057 13.3215 5.94906 12.9424 5.30749C12.4175 4.52012 11.5426 4.11185 10.2887 4.11185C9.6471 4.11185 9.12219 4.28682 8.65559 4.57844C8.21816 4.8409 7.89738 5.16168 7.72241 5.54079H7.69325V4.34514H5.09783V13.0646H7.78073V8.74861C7.78073 8.07789 7.86822 7.55297 8.07235 7.20303C8.30565 6.73643 8.74308 6.50314 9.38465 6.50314C9.99705 6.50314 10.4053 6.76559 10.6386 7.29051C10.7553 7.61129 10.8136 8.10705 10.8136 8.80694V13.0646H13.5257Z" fill="#242424"/>
</svg>
