<svg width="16" height="13" viewBox="0 0 16 13" fill="none" xmlns="http://www.w3.org/2000/svg">
<path d="M13.9155 3.03285C14.4987 2.59542 15.0236 2.07051 15.4611 1.42894C14.8778 1.6914 14.2946 1.86637 13.7113 1.9247C14.3529 1.51643 14.8195 0.962348 15.0528 0.233296C14.4404 0.583241 13.7988 0.845699 13.0989 0.962348C12.8073 0.670727 12.4574 0.437431 12.0783 0.262458C11.6992 0.0874861 11.2909 0 10.8535 0C10.2994 0 9.80362 0.14581 9.33703 0.408269C8.87044 0.699889 8.49133 1.079 8.22887 1.54559C7.93725 2.01218 7.8206 2.5371 7.8206 3.06201C7.8206 3.29531 7.8206 3.52861 7.87893 3.7619C6.62496 3.70358 5.45848 3.41196 4.35032 2.82872C3.24216 2.27464 2.33814 1.51643 1.57992 0.554079C1.2883 1.04983 1.14249 1.57475 1.14249 2.09967C1.14249 2.62458 1.25914 3.12034 1.5216 3.55777C1.7549 4.02436 2.10484 4.37431 2.51311 4.66593C2.01735 4.66593 1.55076 4.52012 1.14249 4.25766V4.31598C1.14249 5.04503 1.37579 5.6866 1.84238 6.24068C2.30898 6.82392 2.89222 7.17386 3.59211 7.31967C3.30049 7.378 3.03803 7.40716 2.77557 7.40716C2.6006 7.40716 2.39646 7.40716 2.22149 7.378C2.39646 7.9904 2.74641 8.48616 3.27132 8.89442C3.79624 9.30269 4.37948 9.47766 5.07937 9.47766C3.94205 10.3525 2.65892 10.79 1.25914 10.79C0.967521 10.79 0.734225 10.79 0.53009 10.7608C1.92987 11.694 3.50462 12.1314 5.22518 12.1314C7.00407 12.1314 8.57882 11.694 9.97859 10.7608C11.2326 9.94426 12.2241 8.86526 12.924 7.46548C13.5947 6.18235 13.9446 4.81174 13.9446 3.41196C13.9446 3.23699 13.9155 3.12034 13.9155 3.03285Z" fill="#242424"/>
</svg>
