<?xml version="1.0" standalone="no"?>
<!DOCTYPE svg PUBLIC "-//W3C//DTD SVG 20010904//EN"
 "http://www.w3.org/TR/2001/REC-SVG-20010904/DTD/svg10.dtd">
<svg version="1.0" xmlns="http://www.w3.org/2000/svg"
 width="15" height="15" viewBox="0 0 50.000000 50.000000"
 preserveAspectRatio="xMidYMid meet">

<g transform="translate(0.000000,50.000000) scale(0.100000,-0.100000)"
fill="#242424" stroke="none">
<path d="M27 434 c-4 -4 -7 -31 -7 -61 l0 -53 230 0 231 0 -3 58 -3 57 -221 3
c-121 1 -223 -1 -227 -4z m69 -45 c10 -17 -13 -36 -27 -22 -12 12 -4 33 11 33
5 0 12 -5 16 -11z m60 0 c10 -17 -13 -36 -27 -22 -12 12 -4 33 11 33 5 0 12
-5 16 -11z m274 -9 c0 -19 -7 -20 -120 -20 -113 0 -120 1 -120 20 0 19 7 20
120 20 113 0 120 -1 120 -20z"/>
<path d="M20 180 l0 -120 230 0 230 0 0 120 0 120 -230 0 -230 0 0 -120z m260
55 l0 -25 -100 0 -100 0 0 25 0 25 100 0 100 0 0 -25z m140 -45 l0 -70 -45 0
-45 0 0 70 0 70 45 0 45 0 0 -70z m-140 -45 l0 -25 -100 0 -100 0 0 25 0 25
100 0 100 0 0 -25z"/>
</g>
</svg>
